<svg width="80" height="74" viewBox="0 0 80 74" fill="none" xmlns="http://www.w3.org/2000/svg">
<path fill-rule="evenodd" clip-rule="evenodd" d="M60.7296 1.65806C60.8606 4.1448 62.3075 6.83139 61.0846 9.39711C57.5228 19.1145 47.6509 24.225 39.5681 29.7142C29.1154 36.5147 17.7249 41.9739 7.96545 49.7858C2.51152 54.0939 -0.763761 61.5014 1.54021 68.3289C2.32881 69.8404 2.24919 72.6138 3.91083 73.3715C5.72608 71.2115 5.17906 67.7051 6.77844 65.2774C10.1107 56.761 19.3549 53.4821 26.7708 49.4581C41.5818 41.9413 57.2762 35.4441 70.1193 24.6945C76.8554 19.1569 81.7971 12.2664 77.9347 3.89945C74.8304 3.1065 71.5793 2.66406 68.8525 2.10687C65.7813 1.70205 60.665 0.431152 60.665 0.431152L60.7296 1.65806Z" fill="url(#paint0_linear_303_322)"/>
<path fill-rule="evenodd" clip-rule="evenodd" d="M44.9582 36.4552C42.3019 37.5807 39.9675 39.6422 38.6211 42.2008C37.3519 44.6273 38.2556 47.6289 40.174 49.4375C42.2354 51.6557 44.7206 54.208 44.3613 57.4927C44.3493 59.0508 43.4367 60.5622 43.7104 62.1119C44.358 62.8078 45.147 61.6385 45.6588 61.2794C48.7945 58.0396 51.297 54.2361 53.7148 50.4469C55.0774 48.0994 56.7038 45.295 55.6375 42.5108C54.9369 40.8054 53.2047 39.8034 51.8338 38.6737C50.0847 37.5722 48.2467 36.0104 46.0538 36.1808C45.6794 36.2294 45.313 36.3279 44.9582 36.455L44.9582 36.4552Z" fill="#4AD032"/>
<defs>
<linearGradient id="paint0_linear_303_322" x1="34.0038" y1="74.0152" x2="33.1418" y2="1.59003" gradientUnits="userSpaceOnUse">
<stop stop-color="#2F492C"/>
<stop offset="1" stop-color="#7FB390"/>
</linearGradient>
</defs>
</svg>
