<svg width="51" height="127" viewBox="0 0 51 127" fill="none" xmlns="http://www.w3.org/2000/svg">
<path fill-rule="evenodd" clip-rule="evenodd" d="M9.93866 0.54644C9.64893 1.05641 10.4565 1.66461 10.6168 2.14927C14.2307 7.83124 18.6442 13.0769 21.3143 19.2995C23.7094 25.4285 22.8125 32.1549 22.3843 38.5555C21.9665 44.8438 20.6169 51.0318 20.2579 57.3235C20.0197 63.3794 20.9871 69.4447 23.0239 75.1496C24.9568 81.2054 28.0282 86.7992 31.172 92.2898C33.5853 96.5203 34.5102 101.445 34.2191 106.275C33.9832 113.011 33.3818 119.736 33.163 126.477C33.4476 126.605 34.4691 127.05 34.2298 126.394C34.4519 125.956 34.9547 125.727 35.3581 125.777C35.1622 125.266 35.874 124.938 36.263 125.062C36.4326 124.142 37.55 123.609 38.0476 122.824C43.2581 117.114 45.1551 109.266 45.6377 101.746C46.0759 93.3858 45.9558 84.7265 42.8273 76.8323C40.7305 71.0974 37.4992 65.8752 34.9615 60.3496C32.6747 55.4 33.0463 49.8484 32.8168 44.5344C32.6826 36.801 32.1452 28.8229 28.7473 21.7362C25.237 14.1192 19.1496 8.09428 12.9533 2.60976C11.9928 1.90148 11.065 0.952825 9.93866 0.546387V0.54644Z" fill="url(#paint0_linear_303_308)"/>
<path fill-rule="evenodd" clip-rule="evenodd" d="M3.15263 64.6898C1.9054 64.6828 2.88895 66.0762 2.98186 66.6885C5.1051 72.2945 5.79511 78.2841 7.44373 84.018C9.32784 89.0557 13.567 93.4791 18.8694 94.8183C23.2025 95.5554 28.0987 94.8026 31.4031 91.7377C31.9147 91.5499 31.4552 90.8333 32.0872 91.1526C32.081 89.5688 32.9827 87.932 32.6405 86.2591C32.4925 83.0216 30.1504 80.1966 27.0605 79.2916C22.9884 77.6261 18.2016 77.1303 15.0047 73.8211C11.4182 70.8662 8.39033 67.088 4.22832 64.8963C3.88846 64.7599 3.52227 64.6584 3.15263 64.6898Z" fill="#54BA42"/>
<path fill-rule="evenodd" clip-rule="evenodd" d="M0.578125 31.3824C0.779966 32.1961 2.12434 32.4931 2.68254 33.1454C7.18462 37.687 10.0308 43.8761 15.5119 47.4329C18.6533 49.3616 22.5696 50.3353 26.2175 49.7071C26.3067 48.3455 25.5522 46.88 24.9721 45.6279C21.4363 39.4933 15.3007 35.1496 8.78536 32.6202C6.18248 31.76 3.33598 30.9576 0.595405 31.3669L0.578125 31.3824Z" fill="#67C357"/>
<path fill-rule="evenodd" clip-rule="evenodd" d="M49.1758 37.5488C48.4544 38.5625 47.9637 39.8136 46.9793 40.6806C43.9997 44.1234 39.6896 47.1715 39.2169 52.0775C38.6847 57.8379 38.9056 63.6579 39.2364 69.426C39.548 70.9769 39.1074 72.9034 39.9793 74.2661C41.2616 74.6943 42.3673 73.2909 43.3033 72.5996C47.1367 68.8957 48.3726 63.475 49.083 58.3902C49.9393 52.0934 51.6075 45.6105 50.2212 39.2714C49.9776 38.7309 49.7686 37.7667 49.1759 37.5488H49.1758Z" fill="#4CA542"/>
<defs>
<linearGradient id="paint0_linear_303_308" x1="9.87649" y1="0.546396" x2="38.0054" y2="122.834" gradientUnits="userSpaceOnUse">
<stop stop-color="#589C59"/>
<stop offset="1" stop-color="#1E361E"/>
</linearGradient>
</defs>
</svg>
