<svg width="77" height="105" viewBox="0 0 77 105" fill="none" xmlns="http://www.w3.org/2000/svg">
<path fill-rule="evenodd" clip-rule="evenodd" d="M31.7698 62.8203C29.7344 62.9491 27.4467 63.8495 26.4633 65.7415C25.9745 66.6961 26.2025 67.8884 27.1496 68.4676C30.3902 71.631 35.16 72.5523 39.5407 72.1521C43.7596 71.8722 48.0318 70.7369 51.5947 68.4114C51.861 68.1059 52.7566 67.7862 52.5551 67.3194C49.4886 66.9825 46.2946 67.4658 43.3526 66.3001C39.5407 65.0687 35.8409 62.9939 31.7698 62.8203Z" fill="#51CA3B"/>
<path fill-rule="evenodd" clip-rule="evenodd" d="M63.1312 0.20079C60.7342 1.40321 59.4766 4.15258 58.7481 6.62031C57.447 12.6952 59.6275 18.8496 58.8072 24.966C58.3164 31.4821 53.3504 36.3543 49.0025 40.7428C42.8274 47.0226 35.8741 52.6347 27.8546 56.3857C21.9839 59.4713 15.5423 61.4649 9.95579 65.0758C6.35878 67.5329 3.27521 70.9928 2.26572 75.3273C0.815489 80.8562 0.612303 86.6318 0.357081 92.3151C0.529811 95.0981 -0.103869 98.0058 0.616047 100.72C1.78166 102.159 4.02276 100.685 4.39519 99.2311C6.25134 92.5243 6.58157 84.9603 11.2227 79.3799C16.3344 73.0362 24.425 70.6774 31.341 66.9361C42.6541 61.2396 52.8537 52.8802 59.5634 42.0499C62.71 36.948 64.5975 30.8725 63.686 24.8511C63.1563 18.4183 61.216 12.0452 61.8342 5.56695C61.946 3.71323 63.1794 2.10368 63.3519 0.306519C63.3077 0.230272 63.2163 0.195099 63.1312 0.20079H63.1312Z" fill="url(#paint0_linear_303_322)"/>
<path fill-rule="evenodd" clip-rule="evenodd" d="M27.369 74.3667C19.8518 74.4223 11.5434 76.463 6.80372 82.7531C2.81385 88.1275 1.70587 95.0428 1.36151 101.571C0.959571 103.103 2.98532 103.57 4.17255 103.648C7.64112 103.758 9.86275 100.523 11.9628 98.2497C15.5383 94.0013 18.4993 88.8714 23.4392 86.0338C28.9331 83.5797 35.1593 84.4659 40.9769 84.8107C45.8519 85.181 51.1657 85.9856 54.6652 89.7362C59.2106 93.5592 60.4397 100.14 65.5097 103.446C68.4604 105.456 72.3619 105.238 75.6253 104.222C76.0155 104.187 77.1557 103.375 76.2326 103.302C73.9841 103.801 71.4215 104.187 69.4532 102.655C65.9228 99.9328 64.2258 95.5929 61.7471 92.0135C58.6733 86.8052 54.4845 82.1233 49.0063 79.3905C42.3622 75.9859 34.8162 74.3643 27.369 74.3667Z" fill="url(#paint1_linear_303_322)"/>
<path fill-rule="evenodd" clip-rule="evenodd" d="M70.027 41.0791C66.8432 42.8034 63.4767 44.3908 59.8036 44.6241C55.0373 45.175 50.2018 44.7353 45.4392 45.3136C43.234 45.5412 41.4208 46.9743 40.1941 48.7478C38.6751 50.781 37.0243 52.8814 36.0244 55.1649C39.1594 56.9265 42.9156 56.2825 46.3221 55.97C50.6439 55.3819 54.9771 54.4551 59.01 52.7663C63.6287 50.6019 67.6261 46.9968 70.1061 42.5355C70.2971 42.0878 70.3383 41.4248 70.027 41.0791H70.027Z" fill="#7DEA69"/>
<path fill-rule="evenodd" clip-rule="evenodd" d="M19.2334 90.0122C17.2146 89.052 14.9185 88.1545 12.6535 88.5718C11.3163 89.086 11.7503 90.8338 11.9892 91.907C12.8972 95.3324 15.5954 98.1382 18.9257 99.3142C22.8952 100.944 27.2455 101.519 31.5075 101.214C32.3452 101.117 33.4653 101.664 34.1538 101.044C33.7253 99.9125 32.4729 99.2646 31.622 98.4528C28.0192 95.6745 24.1056 93.3349 20.4155 90.6777C20.031 90.4394 19.6362 90.2179 19.2335 90.012L19.2334 90.0122Z" fill="#7DEA69"/>
<defs>
<linearGradient id="paint0_linear_303_322" x1="1.30939" y1="74.3665" x2="63.8966" y2="43.6708" gradientUnits="userSpaceOnUse">
<stop stop-color="#5AA05B"/>
<stop offset="1" stop-color="#407341"/>
</linearGradient>
<linearGradient id="paint1_linear_303_322" x1="0.357243" y1="92.3152" x2="76.5844" y2="89.6683" gradientUnits="userSpaceOnUse">
<stop stop-color="#75A96E"/>
<stop offset="1" stop-color="#476E42"/>
</linearGradient>
</defs>
</svg>
