<svg width="49" height="62" viewBox="0 0 49 62" fill="none" xmlns="http://www.w3.org/2000/svg">
<path fill-rule="evenodd" clip-rule="evenodd" d="M36.6648 0.364044C36.1827 1.75798 36.4953 3.30535 35.772 4.70158C33.8297 9.31324 29.7668 13.6404 29.9967 18.5987C30.1156 22.1282 30.9697 25.8058 33.6748 28.8696C36.0889 31.0014 38.9715 32.8728 41.5615 34.8933C42.4241 34.7705 42.5513 33.8212 43.0238 33.3749C46.2353 28.5438 48.3197 23.3091 48.2177 17.975C48.0565 13.9332 47.9682 9.68307 45.3171 5.97668C43.4166 3.63671 40.0674 2.07306 37.0511 0.454183C36.9352 0.413913 36.8053 0.33404 36.6648 0.363993V0.364044Z" fill="#57BD45"/>
<path fill-rule="evenodd" clip-rule="evenodd" d="M1.59427 16.461C1.06507 16.4334 0.556997 16.975 0.784122 17.4986C1.27843 18.7637 2.22971 19.7947 3.19766 20.7225C5.77329 23.0571 9.3494 23.919 12.7517 23.9364C14.4621 23.9907 16.1686 23.7331 17.7979 23.2152C19.5504 22.7101 21.3238 22.121 23.1714 22.2351C25.9938 22.2343 28.7111 23.6124 30.6946 25.5647C32.8291 27.7087 34.2647 30.4644 35.2379 33.3036C35.7803 35.0496 36.2701 36.8562 36.2023 38.7009C36.246 40.2969 36.1312 41.8728 35.8543 43.4464C34.8863 49.2532 34.6446 55.1446 34.3003 61.0118C34.2438 61.3223 34.752 61.3116 34.8646 61.1155C35.0707 60.9918 35.3196 60.9408 35.5351 60.8984C35.7628 60.549 36.2263 60.4006 36.5345 60.1176C39.1698 58.0825 41.0406 55.2281 42.5131 52.2815C43.9637 49.3516 44.9626 46.2048 45.5882 43C46.4249 38.5994 46.1157 33.8913 44.1531 29.8176C42.2331 25.7732 39.2312 22.1778 35.3956 19.8257C32.6465 18.1549 29.3622 17.5943 26.1828 17.6462C23.3735 17.5946 20.5702 17.7901 17.7705 17.9944C14.8162 18.1974 11.8421 18.2673 8.88857 18.0635C6.46244 17.7638 4.10943 17.0633 1.74293 16.4694C1.69367 16.4632 1.64392 16.4602 1.59427 16.4606V16.461Z" fill="#335C34"/>
<path fill-rule="evenodd" clip-rule="evenodd" d="M23.3577 20.2401C20.0665 20.3035 16.7973 21.2849 13.9134 22.8446C12.0483 23.9881 10.3987 26.0224 10.762 28.3415C10.9835 31.3254 13.6578 33.3437 16 34.8029C18.395 36.1547 20.9752 37.2728 23.6217 37.9814C25.3 37.1014 25.8206 35.0199 26.5152 33.3949C27.5528 30.1006 29.5429 26.8607 29.1665 23.2909C28.9443 21.3905 27.0504 20.2449 25.2508 20.2754C24.621 20.2278 23.9888 20.2282 23.3577 20.2401Z" fill="#57BD45"/>
</svg>
