<svg width="41" height="64" viewBox="0 0 41 64" fill="none" xmlns="http://www.w3.org/2000/svg">
<path fill-rule="evenodd" clip-rule="evenodd" d="M9.90008 0.732233C6.5066 0.676987 2.85625 2.49462 1.37919 6.41574C0.554317 8.60994 -0.279419 11.3763 1.0426 13.5533C2.79268 17.9306 5.58956 21.5668 8.96383 24.1739C16.0016 30.075 23.3922 36.6257 26.8317 46.4858C28.5426 50.7971 30.1949 63.2773 30.1949 63.2773C30.1949 63.2773 33.0844 62.6336 35.3087 62.0334C37.3909 61.5265 40.2295 60.6937 40.2295 60.6937C40.2295 60.6937 39.5701 50.4461 38.325 46.2895C35.117 37.7066 30.0278 30.4373 26.144 22.3184C23.0537 16.5585 20.8756 10.1345 17.6513 4.48057C15.9466 1.41131 12.7523 0.663742 9.90008 0.732233V0.732233Z" fill="url(#paint0_linear_303_322)"/>
<path fill-rule="evenodd" clip-rule="evenodd" d="M18.7324 20.4981C17.2104 20.4725 15.6456 20.7667 14.4375 21.7504C12.1435 23.4577 9.77265 25.6255 9.21832 28.5626C8.75163 31.151 11.0065 33.2103 11.0812 35.7373C11.2528 37.9654 10.6083 40.1361 10.0816 42.2789C10.0515 42.7943 9.93458 43.7276 10.5651 43.8974C12.0576 43.6694 13.3571 42.7592 14.6874 42.0948C18.762 39.6944 22.637 36.5323 24.6478 32.1443C25.7405 29.977 26.7679 27.2645 25.5124 24.9405C24.3547 22.9793 22.5976 21.1083 20.2886 20.6099C19.7779 20.5037 19.2521 20.4958 18.7324 20.4981V20.4981Z" fill="#7DEA69"/>
<defs>
<linearGradient id="paint0_linear_303_322" x1="5.9403" y1="0.728045" x2="49.9832" y2="55.4231" gradientUnits="userSpaceOnUse">
<stop stop-color="#86B797"/>
<stop offset="1" stop-color="#4D815F"/>
</linearGradient>
</defs>
</svg>
