<svg width="223" height="93" viewBox="0 0 223 93" fill="none" xmlns="http://www.w3.org/2000/svg">
<path fill-rule="evenodd" clip-rule="evenodd" d="M86.285 1.05843C71.5703 1.18255 56.8083 1.72453 42.2424 3.62179C38.3283 4.27574 34.2101 4.66052 30.6254 6.25885C29.8352 6.51858 29.7891 7.39366 30.5907 7.66707C34.7207 9.58577 39.457 10.225 43.9639 11.1976C67.3087 15.5309 91.0413 19.1246 113.276 26.8925C132.604 33.4449 150.518 42.9267 166.428 54.4261C180.397 64.2254 193.069 75.3031 206.928 85.2103C210.307 87.5066 213.548 90.0019 217.164 92.0115C218.369 92.6105 219.924 92.126 220.354 90.9605C221.971 87.4017 222.086 83.491 222.78 79.7489C224.45 68.2704 226.137 56.4035 222.852 45.0145C220.702 37.2874 214.765 30.6647 207.302 26.1494C196.27 19.4045 183.303 15.6166 170.563 12.0377C144.516 5.0401 117.306 1.07073 89.9965 1.06568C88.7592 1.05855 87.522 1.05667 86.2847 1.05854L86.285 1.05843Z" fill="url(#paint0_linear_303_313)"/>
<path fill-rule="evenodd" clip-rule="evenodd" d="M61.6913 0.719905C53.7261 0.755915 45.6768 1.48445 38.0957 3.60539C37.4321 3.90543 36.41 3.28675 36.2456 4.01506C32.4705 5.88555 28.5267 7.5964 25.357 10.2418C14.7325 18.347 5.18629 28.1289 0.556256 39.8612C0.000424318 41.1912 -0.556513 43.1022 1.32976 43.8602C3.00794 44.1639 4.70039 43.0713 6.21005 42.5213C16.5491 36.8079 26.8665 30.6563 38.7761 27.672C53.5995 23.7669 69.314 23.3902 84.7072 23.6278C96.4286 23.728 108.019 25.664 119.085 28.96C122.282 29.6728 125.439 31.0605 128.768 31.0688C129.599 30.0511 127.867 28.939 127.282 28.1213C119.667 20.8971 111.042 14.4565 101.872 8.74526C94.3871 4.04388 85.2631 1.76448 76.1081 1.22349C71.3156 0.860384 66.5023 0.68514 61.6913 0.719905Z" fill="url(#paint1_linear_303_313)"/>
<defs>
<linearGradient id="paint0_linear_303_313" x1="75.5169" y1="0.715722" x2="213.251" y2="91.4566" gradientUnits="userSpaceOnUse">
<stop stop-color="#7BAD75"/>
<stop offset="1" stop-color="#507C4A"/>
</linearGradient>
<linearGradient id="paint1_linear_303_313" x1="0.0253897" y1="22.3141" x2="128.989" y2="22.3141" gradientUnits="userSpaceOnUse">
<stop stop-color="#76AA70"/>
<stop offset="1" stop-color="#55854F"/>
</linearGradient>
</defs>
</svg>
