<svg width="100" height="39" viewBox="0 0 100 39" fill="none" xmlns="http://www.w3.org/2000/svg">
<path fill-rule="evenodd" clip-rule="evenodd" d="M85.6166 0.210938C84.5376 3.28169 81.4398 4.41737 79.1852 6.18322C77.5806 7.25736 75.7075 8.84351 75.9929 11.2112C76.2917 14.5838 79.2771 16.6135 81.8595 17.7018C84.3312 18.9244 87.0348 17.591 88.967 15.7992C91.0922 14.038 92.8651 11.0065 91.9555 7.9633C91.0572 4.52153 88.6843 1.30714 85.6166 0.210938Z" fill="#54B842"/>
<path fill-rule="evenodd" clip-rule="evenodd" d="M39.2154 4.80671C38.6904 4.32756 38.8874 5.44924 38.8532 5.70017C38.8299 9.32213 38.8982 13.3172 41.3592 16.2414C42.7965 17.9636 44.4205 19.5822 46.1969 20.9429C47.0673 21.2341 47.7911 22.0681 48.3915 22.7363C48.5986 22.5493 48.598 22.4001 48.803 22.7697C49.0731 23.2906 49.4908 22.6478 49.9204 22.6688C51.1306 22.0317 50.4279 20.3806 49.957 19.4741C46.935 14.2305 43.3885 9.20249 39.2153 4.80782L39.2154 4.80671Z" fill="#74C865"/>
<path fill-rule="evenodd" clip-rule="evenodd" d="M10.2388 4.35934C9.65975 4.67951 9.81374 5.56503 9.71711 6.12957C9.6525 9.62742 10.5607 13.0768 11.6987 16.3585C13.1335 20.2967 15.7478 24.1983 19.8622 25.6595C24.0626 27.2082 28.6266 26.92 33.0189 27.2612C38.8073 27.5651 44.7746 28.0387 50.3982 26.2898C55.2344 24.9124 59.8665 22.5665 64.9499 22.2919C70.0664 22.0366 75.2196 22.472 80.2694 23.2757C83.6217 23.9378 86.934 24.952 90.3826 24.962C93.5807 25.0661 96.805 25.0921 99.9785 24.6325C100.085 24.2273 99.2116 23.9432 99.2871 23.4269C98.9281 23.0795 98.354 23.0714 98.0065 22.6643C90.6741 17.1708 81.7542 13.5714 72.5321 13.3095C67.369 13.1597 62.0831 13.2928 57.1595 15.0257C52.8698 16.4599 48.6265 18.2997 44.0563 18.5609C38.7976 18.9427 33.5056 18.4617 28.2974 17.712C24.7584 17.0894 21.2142 16.1694 17.9558 14.6338C15.092 13.1442 13.0677 10.4051 12.056 7.38705C11.564 6.37325 11.2694 5.14998 10.3962 4.38875C10.3475 4.36545 10.2929 4.35313 10.2386 4.35879L10.2388 4.35934Z" fill="url(#paint0_linear_303_288)"/>
<path fill-rule="evenodd" clip-rule="evenodd" d="M59.7059 20.2833C57.5023 21.0156 55.7753 22.8271 54.433 24.6628C52.1475 27.9538 53.301 32.1218 53.6836 35.7769C53.911 36.682 53.6889 37.8278 54.2323 38.6058C55.1424 38.5674 55.6194 37.4573 56.1979 36.8776C58.7189 33.3527 60.972 29.5221 62.1671 25.3332C62.7667 23.4035 61.8711 20.8983 59.8431 20.2822C59.7975 20.2778 59.7515 20.2787 59.7059 20.2831V20.2833Z" fill="#60C04F"/>
<path fill-rule="evenodd" clip-rule="evenodd" d="M3.56839 13.9664C2.61458 14.0536 1.27965 13.8152 0.673828 14.64C2.50505 15.9076 4.14053 17.4509 5.29845 19.3728C8.19633 23.1029 11.659 26.8862 16.3174 28.3092C19.6973 29.2443 23.5586 28.2372 26.1607 25.9232C26.6096 24.6614 25.4092 23.4867 24.6618 22.589C21.5342 19.268 17.5049 16.8971 13.1509 15.571C10.055 14.525 6.84817 13.8918 3.56839 13.9664Z" fill="#74C865"/>
<defs>
<linearGradient id="paint0_linear_303_288" x1="9.71711" y1="6.12956" x2="99.9835" y2="21.6491" gradientUnits="userSpaceOnUse">
<stop stop-color="#70A66A"/>
<stop offset="1" stop-color="#3F633B"/>
</linearGradient>
</defs>
</svg>
