<svg width="113" height="59" viewBox="0 0 113 59" fill="none" xmlns="http://www.w3.org/2000/svg">
<path fill-rule="evenodd" clip-rule="evenodd" d="M0.387378 0.301758C0.32929 2.18968 1.83333 4.25839 2.56276 6.36463C2.96573 11.3336 6.70414 15.3168 8.53053 19.6775C12.4631 27.1495 16.1748 34.7357 21.6585 40.6472C26.8405 46.434 33.7684 50.7596 41.435 52.2871C46.4947 53.5543 51.8063 54.4379 56.241 57.371C56.6578 57.6781 58.1621 59.3092 58.3497 58.5698C59.2557 55.4324 59.1213 51.1916 59.6221 47.9763C59.8693 44.8621 60.0211 41.3726 59.7094 38.2404C59.3883 36.2445 59.1503 39.5994 57.2673 39.208C53.982 38.4674 46.4352 35.4493 43.6088 33.5298C39.5988 31.0083 36.4292 28.0497 34.1214 23.4016C32.0539 20.2618 31.3547 15.6535 28.8691 10.9002C28.0315 6.77957 26.6684 5.50534 26.6684 5.50534C26.6684 5.50534 25.4758 5.61083 22.6409 4.77072C17.8721 3.6878 22.6409 4.77077 17.9464 3.96704C17.5865 3.89914 12.1475 2.71734 11.7869 2.64329L0.387378 0.301758Z" fill="url(#paint0_linear_303_332)"/>
<path fill-rule="evenodd" clip-rule="evenodd" d="M83.2173 18.5773C82.4172 18.9495 82.7462 20.2514 82.5593 20.9686C82.1509 24.5619 81.5378 28.2404 81.6496 31.7467C81.8012 32.1538 82.9648 32.2067 83.2144 32.0332C82.98 31.5939 83.97 31.8858 84.1791 31.642C88.0678 30.6451 91.4352 28.3515 94.4102 25.7289C95.3685 24.7775 96.7362 24.0261 97.2471 22.7292C97.0619 22.1021 96.039 22.2888 95.5575 21.9926C91.5504 20.9082 87.2313 19.6183 83.2173 18.5771V18.5773Z" fill="#366036"/>
<path fill-rule="evenodd" clip-rule="evenodd" d="M61.5113 15.7723C59.2635 16.1927 57.2024 17.4126 55.3599 18.7314C50.9248 22.1006 49.4808 28.0452 49.8791 33.3626C50.2604 39.3393 52.522 45.5467 57.4166 49.2876C62.7699 53.4272 69.4676 55.2693 75.963 56.7482C77.2288 56.9166 78.4302 57.7407 79.7315 57.2319C82.3266 56.4634 85.3576 55.0664 86.004 52.1515C86.8261 48.4912 86.6039 44.6491 86.0206 40.9688C85.7788 39.0408 84.7739 36.9972 82.7602 36.4388C78.9763 35.2847 74.9086 35.3123 71.1913 33.8803C67.6834 32.5566 64.567 31.2247 62.8091 27.7784C61.2906 24.3247 62.2024 20.9211 62.6172 17.1646C62.5353 16.8324 61.8301 15.751 61.5129 15.7723H61.5113Z" fill="url(#paint1_linear_303_332)"/>
<path fill-rule="evenodd" clip-rule="evenodd" d="M13.6244 24.5103C9.45947 24.5605 5.13038 26.541 3.07367 30.298C0.431781 34.8682 1.47336 40.5527 3.57783 45.1137C4.73944 47.5002 5.78467 50.0081 7.40086 52.1265C7.83614 52.8154 8.66206 52.711 9.14682 52.1631C11.2478 50.2829 12.3265 47.4584 14.7827 45.9352C18.7341 43.2126 23.2197 40.4015 24.889 35.6355C26.3491 32.2294 24.5607 28.184 21.4963 26.3363C19.2024 24.8049 16.3107 24.535 13.6244 24.5105V24.5103Z" fill="#9BE46A"/>
<path fill-rule="evenodd" clip-rule="evenodd" d="M91.1967 39.6189C85.5126 39.4168 80.2826 42.6441 76.466 46.6176C76.0392 46.9792 75.3773 47.7953 76.2288 48.1172C78.7675 49.4789 81.539 50.5803 84.4184 50.9074C88.7169 51.3392 92.9758 50.3201 96.9775 48.8277C102.037 47.1316 106.832 44.3906 112.199 43.8024C113.009 43.7268 112.618 42.8092 112.089 42.6243C108.319 40.3368 103.713 40.4741 99.475 39.9831C96.721 39.7737 93.9605 39.5842 91.1969 39.6189H91.1967Z" fill="#3A802E"/>
<defs>
<linearGradient id="paint0_linear_303_332" x1="2.56275" y1="4.99465" x2="64.9331" y2="52.6366" gradientUnits="userSpaceOnUse">
<stop stop-color="#8FD383"/>
<stop offset="1" stop-color="#4AA63B"/>
</linearGradient>
<linearGradient id="paint1_linear_303_332" x1="49.8159" y1="21.174" x2="86.5203" y2="49.535" gradientUnits="userSpaceOnUse">
<stop stop-color="#75AD88"/>
<stop offset="1" stop-color="#253D2D"/>
</linearGradient>
</defs>
</svg>
