<svg width="89" height="33" viewBox="0 0 89 33" fill="none" xmlns="http://www.w3.org/2000/svg">
<path fill-rule="evenodd" clip-rule="evenodd" d="M20.0587 0.701882C19.4249 0.708538 18.779 0.439607 18.8753 1.35307C20.7058 5.21125 22.5832 9.50234 26.1693 12.8029C26.2746 13.8403 32.7633 16.1698 33.7759 16.5533C36.5166 18.0403 36.6042 18.1923 39.5971 18.6394C40.2604 18.8324 53.2813 10.8773 53.3146 9.96822C48.1865 10.5313 42.2035 9.76287 39.6428 5.79004C38.5469 4.08979 38.6513 3.47961 38.2621 3.1466C36.1944 2.80108 27.7789 1.6841 25.4162 1.36211C23.709 1.12448 23.0607 1.06989 21.1561 0.816092L20.0587 0.701882Z" fill="#43BC53"/>
<path fill-rule="evenodd" clip-rule="evenodd" d="M61.7561 5.84716C59.2393 5.41601 57.9026 5.32995 56.0556 7.08661C53.9962 9.00998 51.8546 11.0437 49.0736 11.6591C44.2331 13.0537 38.2596 12.8464 34.29 11.7732C31.1757 10.9313 29.1369 10.3911 27.7584 9.61512C26.6074 8.96718 25.0152 7.43824 24.3034 6.54435C23.6512 7.02806 23.8517 8.18772 23.9392 9.05738C24.397 10.9189 24.9957 11.3131 26.1693 12.8027C27.3913 14.5933 31.2174 16.9883 34.6665 18.4926C37.9978 20.1012 41.7012 20.287 45.2715 20.8502C50.409 21.3236 55.6155 20.8768 60.6749 19.8676C65.2271 18.746 70.0479 17.5344 73.7147 14.2881C75.4444 12.6821 76.7495 10.3726 77.1185 8.02817C72.3028 7.26078 68.7415 7.06466 63.9549 6.15526L61.7561 5.84716Z" fill="#328C4A"/>
<path fill-rule="evenodd" clip-rule="evenodd" d="M68.3752 9.44238C66.592 9.49073 64.6655 10.1232 63.5668 11.5973C62.9439 12.5788 63.5703 13.7559 64.1579 14.5901C65.2211 16.0438 66.7935 17.0453 68.5045 17.5688C70.7402 18.3047 73.124 18.603 75.4693 18.3695C78.7788 18.229 81.8871 16.7511 84.4416 14.707C85.6617 13.7553 86.8125 12.7179 88.0453 11.7881C88.4061 11.4047 87.8058 11.0618 87.4756 10.9908C85.5535 10.3157 83.4903 10.0847 81.4682 10.3175C78.4217 10.5542 75.3664 10.3926 72.359 9.87879C71.0365 9.70323 69.7127 9.45468 68.3752 9.44238Z" fill="#44BB2F"/>
<path fill-rule="evenodd" clip-rule="evenodd" d="M34.2158 13.6804C33.5961 12.8896 32.0596 13.5955 30.9426 13.7556C29.2868 14.0744 27.238 14.8463 25.8818 16.6117C24.0517 19.2074 23.7953 21.9164 23.8461 24.1991C24.0476 26.6698 24.4105 29.0756 25.1293 31.2382C25.3881 31.7775 25.9021 32.331 26.8092 31.7997C28.8024 30.8515 30.7431 30.3987 32.6961 29.799C34.5108 29.2832 36.7125 28.0364 37.8224 26.0473C39.0365 23.9645 38.8789 22.0103 38.204 20.6254C37.1099 18.2223 35.8516 15.9346 34.3709 13.8487C34.3236 13.7875 34.268 13.7369 34.2157 13.6806L34.2158 13.6804Z" fill="#4CE230"/>
<path fill-rule="evenodd" clip-rule="evenodd" d="M0.163181 4.547C-0.225779 4.80226 0.360675 5.13498 0.550526 5.25206C3.47299 7.31464 6.65806 9.41451 10.207 9.28618C12.392 9.30282 14.463 8.31808 16.4942 7.50772C19.4808 6.17056 22.7598 4.93611 25.9797 5.78487C26.1979 5.98855 26.6551 5.97791 26.5569 5.53594C26.0423 4.27313 24.994 3.28788 23.8462 2.84131C19.9133 1.52 15.6721 1.61927 11.7175 2.78038C8.77706 3.50081 5.89442 4.6263 2.89256 4.93315C1.97258 5.08125 1.07718 4.4722 0.163029 4.54685L0.163181 4.547Z" fill="#7DEA69"/>
</svg>
