<svg width="77" height="106" viewBox="0 0 77 106" fill="none" xmlns="http://www.w3.org/2000/svg">
<path fill-rule="evenodd" clip-rule="evenodd" d="M33.1257 62.5249C31.0903 62.6537 28.8026 63.5541 27.8192 65.4461C27.3304 66.4007 27.5585 67.5929 28.5056 68.1721C31.7461 71.3356 36.516 72.2569 40.8967 71.8567C45.1156 71.5771 49.3877 70.4415 52.9507 68.116C53.217 67.8104 54.1126 67.4908 53.911 67.024C50.8445 66.687 47.6505 67.1704 44.7085 66.0046C40.8967 64.7733 37.1968 62.6985 33.1257 62.5249Z" fill="#69EA77"/>
<path fill-rule="evenodd" clip-rule="evenodd" d="M62.8939 0.439559C60.497 1.64198 59.2393 4.39135 58.5108 6.85908C57.2097 12.934 59.3902 19.0883 58.5699 25.2047C58.0791 31.7208 53.1131 36.593 48.7652 40.9815C42.5901 47.2613 35.6368 52.8735 27.6173 56.6244C21.7465 59.71 15.305 61.7037 9.71848 65.3146C6.12147 67.7717 3.03791 71.2316 2.02842 75.5661C0.578184 81.0949 0.374998 86.8706 0.119776 92.5539C0.292507 95.3369 -0.341173 98.2445 0.378743 100.959C1.54436 102.397 3.78546 100.924 4.15789 99.4699C6.01403 92.7631 6.34427 85.1991 10.9854 79.6187C16.0971 73.275 24.1877 70.9162 31.1037 67.1749C42.4168 61.4784 52.6164 53.119 59.3261 42.2887C62.4727 37.1868 64.3602 31.1113 63.4487 25.0899C62.919 18.6571 60.9787 12.284 61.5969 5.80572C61.7087 3.952 62.9421 2.34245 63.1146 0.545288C63.0704 0.469042 62.979 0.433868 62.8939 0.439559H62.8939Z" fill="url(#paint0_linear_303_480)"/>
<path fill-rule="evenodd" clip-rule="evenodd" d="M27.1317 74.6052C19.6145 74.6608 11.3061 76.7015 6.56641 82.9917C2.57654 88.366 1.46856 95.2814 1.1242 101.809C0.722266 103.342 2.74801 103.808 3.93525 103.887C7.40381 103.996 9.62544 100.762 11.7255 98.4882C15.301 94.2398 18.262 89.11 23.2019 86.2723C28.6958 83.8183 34.922 84.7045 40.7396 85.0493C45.6146 85.4195 50.9284 86.2241 54.4279 89.9748C58.9733 93.7978 60.2024 100.379 65.2724 103.684C68.2231 105.694 72.1246 105.477 75.388 104.461C75.7782 104.426 76.9184 103.614 75.9953 103.541C73.7468 104.039 71.1842 104.425 69.2159 102.893C65.6855 100.171 63.9885 95.8314 61.5098 92.2521C58.436 87.0438 54.2472 82.3618 48.769 79.629C42.1249 76.2244 34.5789 74.6028 27.1317 74.6052Z" fill="url(#paint1_linear_303_480)"/>
<path fill-rule="evenodd" clip-rule="evenodd" d="M73.0557 36.7461C69.9125 38.5431 66.5834 40.2074 62.9167 40.5251C58.1642 41.1853 53.3199 40.8565 48.5718 41.5444C46.3724 41.8226 44.5927 43.2969 43.4071 45.0982C41.9353 47.1658 40.3333 49.3035 39.3862 51.6093C42.5609 53.2985 46.3013 52.5682 49.6997 52.1777C54.0068 51.4904 58.3176 50.4643 62.3106 48.6833C66.8782 46.4134 70.7916 42.7174 73.1683 38.2003C73.349 37.7484 73.3749 37.0846 73.0557 36.7461H73.0557Z" fill="#69EA87"/>
<path fill-rule="evenodd" clip-rule="evenodd" d="M21.8638 89.1936C19.7308 88.5237 17.332 87.9546 15.1473 88.683C13.8947 89.3783 14.5681 91.0487 14.9543 92.0782C16.331 95.3438 19.3939 97.7467 22.8558 98.4478C27.0137 99.509 31.4018 99.4734 35.5797 98.5779C36.3958 98.3656 37.5811 98.751 38.1764 98.041C37.5945 96.9806 36.264 96.5133 35.3082 95.8279C31.3533 93.5781 27.1516 91.806 23.1271 89.6882C22.7132 89.5058 22.2914 89.3413 21.8638 89.1935V89.1936Z" fill="#69EA7F"/>
<defs>
<linearGradient id="paint0_linear_303_480" x1="1.07209" y1="74.6053" x2="63.6593" y2="43.9096" gradientUnits="userSpaceOnUse">
<stop stop-color="#5A8AA0"/>
<stop offset="1" stop-color="#406473"/>
</linearGradient>
<linearGradient id="paint1_linear_303_480" x1="0.119937" y1="92.5538" x2="76.3471" y2="89.9069" gradientUnits="userSpaceOnUse">
<stop stop-color="#6E71A9"/>
<stop offset="1" stop-color="#424B6E"/>
</linearGradient>
</defs>
</svg>
