<svg width="43" height="64" viewBox="0 0 43 64" fill="none" xmlns="http://www.w3.org/2000/svg">
<path fill-rule="evenodd" clip-rule="evenodd" d="M10.232 0.732233C6.65187 0.676987 2.80074 2.49462 1.24244 6.41574C0.372188 8.60994 -0.507444 11.3763 0.887291 13.5533C2.73364 17.9306 5.68437 21.5668 9.24425 24.1739C16.6691 30.075 24.4663 36.6257 28.095 46.4858C29.9 50.7971 31.6432 63.2772 31.6432 63.2772C31.6432 63.2772 34.6916 62.6335 37.0382 62.0334C39.235 61.5265 42.2297 60.6937 42.2297 60.6937C42.2297 60.6937 41.534 50.4461 40.2205 46.2895C36.836 37.7066 31.4669 30.4373 27.3694 22.3184C24.1091 16.5585 21.8112 10.1345 18.4096 4.48057C16.6112 1.41131 13.2411 0.663742 10.232 0.732233V0.732233Z" fill="url(#paint0_linear_303_480)"/>
<path fill-rule="evenodd" clip-rule="evenodd" d="M20.7329 20.4981C19.2109 20.4725 17.6461 20.7667 16.438 21.7504C14.144 23.4577 11.7731 25.6255 11.2188 28.5626C10.7521 31.151 13.007 33.2103 13.0817 35.7373C13.2533 37.9654 12.6088 40.1361 12.082 42.2789C12.052 42.7943 11.9351 43.7276 12.5656 43.8974C14.0581 43.6694 15.3576 42.7593 16.6879 42.0948C20.7625 39.6944 24.6375 36.5323 26.6483 32.1443C27.7409 29.977 28.7684 27.2645 27.5128 24.9405C26.3552 22.9793 24.5981 21.1083 22.2891 20.6099C21.7784 20.5037 21.2526 20.4958 20.7329 20.4981V20.4981Z" fill="#69EA6E"/>
<defs>
<linearGradient id="paint0_linear_303_480" x1="6.05441" y1="0.728045" x2="49.5381" y2="57.699" gradientUnits="userSpaceOnUse">
<stop stop-color="#66A3A0"/>
<stop offset="1" stop-color="#386A82"/>
</linearGradient>
</defs>
</svg>
