<svg width="89" height="33" viewBox="0 0 89 33" fill="none" xmlns="http://www.w3.org/2000/svg">
<path fill-rule="evenodd" clip-rule="evenodd" d="M20.0587 0.701882C19.4249 0.708538 18.779 0.439607 18.8753 1.35307C20.7058 5.21125 22.5832 9.50234 26.1693 12.8029C26.2746 13.8403 32.7633 16.1698 33.7759 16.5533C36.5166 18.0403 36.6042 18.1923 39.5971 18.6394C40.2604 18.8324 53.2813 10.8773 53.3146 9.96822C48.1865 10.5313 42.2035 9.76287 39.6428 5.79004C38.5469 4.08979 38.6513 3.47961 38.2621 3.1466C36.1944 2.80108 27.7789 1.6841 25.4162 1.36211C23.709 1.12448 23.0607 1.06989 21.1561 0.816092L20.0587 0.701882Z" fill="#4C9593"/>
<path fill-rule="evenodd" clip-rule="evenodd" d="M61.7561 5.8474C59.2393 5.41625 57.9026 5.33019 56.0556 7.08685C53.9962 9.01022 51.8546 11.044 49.0736 11.6593C44.2331 13.0539 38.2596 12.8466 34.29 11.7735C31.1757 10.9316 29.1369 10.3914 27.7584 9.61537C26.6074 8.96742 25.0152 7.43849 24.3034 6.5446C23.6512 7.0283 23.8517 8.18796 23.9392 9.05762C24.397 10.9192 24.9957 11.3133 26.1693 12.8029C27.3913 14.5935 31.2174 16.9886 34.6665 18.4929C37.9978 20.1015 41.7012 20.2872 45.2715 20.8504C50.409 21.3238 55.6155 20.8771 60.6749 19.8678C65.2271 18.7462 70.0479 17.5346 73.7147 14.2884C75.4444 12.6823 76.7495 10.3728 77.1185 8.02841C72.3028 7.26102 68.7415 7.0649 63.9549 6.1555L61.7561 5.8474Z" fill="#386A82"/>
<path fill-rule="evenodd" clip-rule="evenodd" d="M68.3752 9.44238C66.592 9.49073 64.6655 10.1232 63.5668 11.5973C62.9439 12.5788 63.5703 13.7559 64.1579 14.5901C65.2211 16.0438 66.7935 17.0453 68.5045 17.5688C70.7402 18.3047 73.124 18.603 75.4693 18.3695C78.7788 18.229 81.8871 16.7511 84.4416 14.707C85.6617 13.7553 86.8125 12.7179 88.0453 11.7881C88.4061 11.4047 87.8058 11.0618 87.4756 10.9908C85.5535 10.3157 83.4903 10.0847 81.4682 10.3175C78.4217 10.5542 75.3664 10.3926 72.359 9.87879C71.0365 9.70323 69.7127 9.45468 68.3752 9.44238Z" fill="#2FBB62"/>
<path fill-rule="evenodd" clip-rule="evenodd" d="M34.2158 13.6806C33.5961 12.8899 32.0596 13.5958 30.9426 13.7558C29.2868 14.0747 27.238 14.8466 25.8818 16.612C24.0517 19.2077 23.7953 21.9166 23.8461 24.1994C24.0476 26.67 24.4105 29.0759 25.1293 31.2385C25.3881 31.7777 25.9021 32.3312 26.8092 31.7999C28.8024 30.8518 30.7431 30.3989 32.6961 29.7993C34.5108 29.2834 36.7125 28.0366 37.8224 26.0476C39.0365 23.9647 38.8789 22.0106 38.204 20.6256C37.1099 18.2226 35.8516 15.9348 34.3709 13.849C34.3236 13.7877 34.268 13.7371 34.2157 13.6809L34.2158 13.6806Z" fill="#30E25F"/>
<path fill-rule="evenodd" clip-rule="evenodd" d="M0.163181 4.54675C-0.225779 4.80202 0.360675 5.13474 0.550526 5.25182C3.47299 7.3144 6.65806 9.41426 10.207 9.28593C12.392 9.30257 14.463 8.31783 16.4942 7.50748C19.4808 6.17032 22.7598 4.93587 25.9797 5.78463C26.1979 5.98831 26.6551 5.97766 26.5569 5.53569C26.0423 4.27288 24.994 3.28763 23.8462 2.84107C19.9133 1.51975 15.6721 1.61903 11.7175 2.78013C8.77706 3.50056 5.89442 4.62606 2.89256 4.9329C1.97258 5.081 1.07718 4.47195 0.163029 4.5466L0.163181 4.54675Z" fill="#69EA7B"/>
</svg>
