<svg width="49" height="62" viewBox="0 0 49 62" fill="none" xmlns="http://www.w3.org/2000/svg">
<path fill-rule="evenodd" clip-rule="evenodd" d="M36.6648 0.364044C36.1827 1.75798 36.4953 3.30535 35.772 4.70158C33.8297 9.31324 29.7668 13.6404 29.9967 18.5987C30.1156 22.1282 30.9697 25.8058 33.6748 28.8696C36.0889 31.0014 38.9715 32.8728 41.5615 34.8933C42.4241 34.7705 42.5513 33.8212 43.0238 33.3749C46.2353 28.5438 48.3197 23.3091 48.2177 17.975C48.0565 13.9332 47.9682 9.68307 45.3171 5.97668C43.4166 3.63671 40.0674 2.07306 37.0511 0.454183C36.9352 0.413913 36.8053 0.33404 36.6648 0.363993V0.364044Z" fill="#358A96"/>
<path fill-rule="evenodd" clip-rule="evenodd" d="M1.59427 16.4607C1.06507 16.4332 0.556997 16.9747 0.784122 17.4983C1.27843 18.7635 2.22971 19.7944 3.19766 20.7222C5.77329 23.0568 9.3494 23.9188 12.7517 23.9362C14.4621 23.9904 16.1686 23.7329 17.7979 23.215C19.5504 22.7099 21.3238 22.1208 23.1714 22.2349C25.9938 22.2341 28.7111 23.6122 30.6946 25.5645C32.8291 27.7085 34.2647 30.4642 35.2379 33.3034C35.7803 35.0493 36.2701 36.8559 36.2023 38.7007C36.246 40.2967 36.1312 41.8726 35.8543 43.4461C34.8863 49.253 34.6446 55.1443 34.3003 61.0116C34.2438 61.3221 34.752 61.3113 34.8646 61.1153C35.0707 60.9915 35.3196 60.9406 35.5351 60.8982C35.7628 60.5488 36.2263 60.4004 36.5345 60.1173C39.1698 58.0823 41.0406 55.2278 42.5131 52.2813C43.9637 49.3514 44.9626 46.2046 45.5882 42.9997C46.4249 38.5991 46.1157 33.8911 44.1531 29.8174C42.2331 25.773 39.2312 22.1775 35.3956 19.8255C32.6465 18.1546 29.3622 17.5941 26.1828 17.6459C23.3735 17.5943 20.5702 17.7899 17.7705 17.9941C14.8162 18.1971 11.8421 18.2671 8.88857 18.0632C6.46244 17.7636 4.10943 17.0631 1.74293 16.4692C1.69367 16.463 1.64392 16.46 1.59427 16.4604V16.4607Z" fill="#333F5C"/>
<path fill-rule="evenodd" clip-rule="evenodd" d="M23.3577 20.2404C20.0665 20.3038 16.7973 21.2851 13.9134 22.8449C12.0483 23.9884 10.3987 26.0226 10.762 28.3417C10.9835 31.3256 13.6578 33.344 16 34.8032C18.395 36.155 20.9752 37.273 23.6217 37.9817C25.3 37.1016 25.8206 35.0201 26.5152 33.3952C27.5528 30.1008 29.5429 26.861 29.1665 23.2911C28.9443 21.3908 27.0504 20.2451 25.2508 20.2757C24.621 20.228 23.9888 20.2285 23.3577 20.2404Z" fill="#45BD8F"/>
</svg>
