<svg width="66" height="81" viewBox="0 0 66 81" fill="none" xmlns="http://www.w3.org/2000/svg">
<path fill-rule="evenodd" clip-rule="evenodd" d="M34.788 0.862904C33.7623 0.873887 33.8596 2.19773 33.5704 2.78302C32.6927 6.97842 31.4042 11.3371 32.7965 15.5654C34.0889 19.8023 36.3887 23.9669 40.3262 26.8494C42.3039 28.5201 44.7217 29.8388 47.4939 30.2116C48.1716 30.3792 48.862 30.6723 49.4639 30.2438C52.8069 29.599 56.2685 27.3097 56.4054 24.1542C56.1893 20.7722 52.8858 18.4308 50.4265 16.1034C45.1797 11.7671 40.5152 6.94711 36.1425 1.95054C35.7314 1.5694 35.3732 1.05912 34.788 0.862549V0.862904ZM49.0456 30.3309C49.0422 30.3482 49.0462 30.3007 49.0456 30.3309V30.3309Z" fill="#3BD796"/>
<path fill-rule="evenodd" clip-rule="evenodd" d="M44.005 25.3048C37.9263 25.4416 31.4486 26.5708 26.603 30.4964C24.2842 32.6613 21.9057 35.1679 21.1797 38.3536C20.0823 44.465 22.3115 50.5237 24.3105 56.2057C26.4237 61.7249 27.7006 67.7222 26.8563 73.6265C26.6132 75.937 25.3289 77.9375 24.6848 80.1288C24.5023 80.7013 25.1977 80.8037 25.5004 80.433C28.7182 77.8646 30.0648 73.6554 30.649 69.7201C31.1544 64.1353 31.5876 58.5228 31.5175 52.9124C31.3073 49.2696 30.6177 45.5921 31.0981 41.9559C31.6643 40.099 33.6906 39.295 35.4874 39.3528C44.5224 38.8689 53.5786 39.7603 62.6156 39.351C63.5014 39.1759 64.6164 39.336 65.3573 38.7916C65.3213 38.198 65.272 37.4856 65.0132 36.956C64.7015 36.9133 65.2011 36.3111 64.7614 36.2613C63.2783 33.6737 61.5636 31.1352 59.0941 29.3784C54.81 26.0901 49.2866 25.1419 44.0051 25.3048L44.005 25.3048Z" fill="url(#paint0_linear_303_461)"/>
<path fill-rule="evenodd" clip-rule="evenodd" d="M25.459 48.2724C28.0674 52.4178 31.7619 55.9344 35.8354 59.1064C38.5163 61.2834 41.2801 63.5519 42.2444 66.7353C42.6731 67.4913 42.6457 68.5865 43.4805 69.0954C44.2584 68.9139 44.4126 68.0089 44.8284 67.5308C46.8417 63.7357 46.0748 59.8332 44.8417 56.4717C43.0955 51.9851 39.0652 47.9362 32.8716 47.2512C30.5202 47.0576 27.9716 47.4426 25.5533 48.1181L25.467 48.2586L25.459 48.2724Z" fill="#69EAAC"/>
<path fill-rule="evenodd" clip-rule="evenodd" d="M20.7256 26.7094C18.9556 26.7109 17.2264 27.1281 15.8075 27.7629C13.6851 28.7408 12.3807 30.213 11.2999 31.6661C10.2818 33.005 9.55075 34.4232 8.38534 35.7189C7.6476 36.546 6.61338 37.3406 5.16017 37.7159C4.08396 38.0084 2.91867 38.1445 1.80684 38.3782C1.27303 38.499 0.75863 38.8654 0.974117 39.2295C1.22945 39.4976 1.67966 39.6728 2.05239 39.8754C4.07133 40.8258 6.53718 41.3469 9.02299 41.6103C11.9616 41.9325 15.032 41.7065 17.8157 41.0616C20.0497 40.5392 21.9316 39.6016 23.674 38.6198C25.6649 37.5379 27.5007 36.3229 28.8171 34.8955C29.2453 34.4115 29.6936 33.9237 29.9607 33.396C30.1056 32.711 29.9308 32.0167 29.7496 31.3401C29.4938 30.3594 28.788 29.4217 27.6684 28.6997C26.1077 27.6673 24 26.9004 21.7033 26.7216C21.3779 26.7056 21.0515 26.7089 20.7256 26.7092L20.7256 26.7094Z" fill="#69EA83"/>
<defs>
<linearGradient id="paint0_linear_303_461" x1="17.4415" y1="59.507" x2="64.7469" y2="36.2318" gradientUnits="userSpaceOnUse">
<stop stop-color="#4C9593"/>
<stop offset="1" stop-color="#386A82"/>
</linearGradient>
</defs>
</svg>
