<svg width="83" height="40" viewBox="0 0 83 40" fill="none" xmlns="http://www.w3.org/2000/svg">
<path fill-rule="evenodd" clip-rule="evenodd" d="M28.9242 23.9639C28.7145 24.2459 28.9616 24.6808 28.9482 25.0054C29.1939 26.7352 29.4615 28.5063 29.2616 30.2547C28.9947 31.8225 28.3674 33.3387 27.5207 34.6895C27.304 34.8186 27.2157 35.2095 27.55 35.2243C28.314 35.2887 29.0809 35.3465 29.8353 35.4816C30.3237 35.4017 30.2263 34.7331 30.3558 34.3798C30.8936 31.8546 30.8563 29.1956 30.0665 26.7261C29.7534 25.8048 29.5131 24.8281 29.0308 23.9818C29.0015 23.9588 28.96 23.9488 28.9243 23.9641L28.9242 23.9639Z" fill="#466F75"/>
<path fill-rule="evenodd" clip-rule="evenodd" d="M27.3639 17.9559C25.7446 18.2069 24.1793 18.7257 22.5626 18.9966C19.3534 19.6906 15.9882 20.0115 13.0187 21.5093C11.4924 22.2479 10.3534 23.5857 9.62319 25.0921C8.50515 27.3009 7.9431 29.7761 7.86377 32.2429C7.84611 32.6028 7.91498 33.1079 8.38134 33.1084C9.34467 33.2107 10.3401 33.381 11.2979 33.2586C11.4115 30.9378 11.1033 28.5487 11.8687 26.3125C12.291 24.7962 13.3329 23.4842 14.7315 22.766C16.7563 21.6939 19.014 21.1474 21.1821 20.4135C23.2886 19.7037 25.4937 19.2152 27.4803 18.1949C27.6625 18.0963 27.5379 17.9169 27.3639 17.9559L27.3639 17.9559Z" fill="#54868D"/>
<path fill-rule="evenodd" clip-rule="evenodd" d="M0.495373 0.189087C0.295431 0.405612 0.665037 0.731336 0.714698 0.969843C2.21909 4.03519 4.26479 6.85259 5.24693 10.1548C6.45077 14.0061 6.42433 18.1152 6.24719 22.1086C6.04359 25.2916 5.48758 28.4534 4.59246 31.5201C4.51296 31.8869 4.28144 32.4759 4.76772 32.663C5.68615 32.967 6.68015 32.9712 7.63864 33.0188C8.29892 33.0305 8.50412 32.2545 8.61852 31.737C8.86023 29.6357 8.75054 27.5084 8.91131 25.4016C9.21774 21.3278 8.99928 17.184 7.98716 13.2163C6.94449 9.34279 4.9358 5.80894 2.71078 2.50081C2.09955 1.64777 1.4353 0.780305 0.55758 0.190446C0.537263 0.185121 0.515924 0.184131 0.495373 0.188694V0.189087Z" fill="#466F75"/>
<path fill-rule="evenodd" clip-rule="evenodd" d="M53.8006 19.9836C53.5446 20.1258 53.9256 20.3895 54.0403 20.494C55.0306 21.2308 55.9991 22.0705 56.6387 23.267C57.8619 25.2423 58.1845 27.744 58.3946 30.1206C58.606 32.6349 58.5966 35.1822 58.2388 37.6689C58.1192 38.1291 58.1706 38.4865 58.1706 38.4865C58.1706 38.4865 60.7032 38.7458 61.6342 38.8637C62.1362 38.8304 62.0982 38.0639 62.1303 37.6355C62.196 36.2021 61.9947 34.7764 61.6334 33.4074C60.9465 30.785 60.6187 28.0385 59.7222 25.4936C59.0069 23.4849 57.7118 21.7501 56.0319 20.8269C55.3269 20.4159 54.567 20.159 53.8006 19.9836Z" fill="#346674"/>
<path fill-rule="evenodd" clip-rule="evenodd" d="M76.0734 12.0313C74.2504 12.2857 72.5167 13.1282 70.8059 13.9317C68.9995 14.8732 67.1502 15.8117 65.5834 17.344C63.6162 19.2922 62.5819 22.377 61.9125 25.4114C61.2578 28.4213 60.77 31.5252 60.6917 34.6705C60.6787 36.1447 61.0509 37.6072 61.634 38.8635C61.9251 39.1073 62.3269 38.9278 62.6564 38.9715C63.4446 39.1123 65.1048 39.2043 65.1048 39.2043C65.1048 39.2043 64.9648 36.3889 64.926 35.5317C64.5832 31.5847 64.6425 27.4856 65.648 23.7321C66.1401 21.9722 66.8719 20.316 67.9216 19.0335C69.8729 16.5813 72.3112 14.9267 74.7683 13.5093C75.4005 13.1923 76.1237 12.9587 76.5891 12.2781C76.6746 11.9274 76.1877 12.0445 76.0734 12.0313H76.0734Z" fill="#4B777E"/>
<path fill-rule="evenodd" clip-rule="evenodd" d="M76.725 25.6291C73.3287 25.8231 70.2338 28.5174 68.5153 32.2656C67.6411 34.1042 67.1129 36.2222 66.9628 38.4057C66.9718 38.7275 66.7599 39.1285 66.8934 39.3923C67.9092 39.5542 68.9354 39.7772 69.9553 39.7265C70.4337 39.6548 70.3889 38.8756 70.4857 38.4129C70.8201 36.0408 70.9499 33.5011 71.9339 31.4298C73.0861 29.0757 75.0399 27.4024 77.1863 27.1359C78.9387 26.9477 80.709 26.9692 82.4566 26.7422C82.68 26.5876 82.3676 26.3119 82.2225 26.3016C80.9511 25.9055 79.6421 25.8508 78.3518 25.66C77.8096 25.6089 77.266 25.5943 76.725 25.6291L76.725 25.6291Z" fill="#346674"/>
</svg>
