<svg width="80" height="74" viewBox="0 0 80 74" fill="none" xmlns="http://www.w3.org/2000/svg">
<path fill-rule="evenodd" clip-rule="evenodd" d="M60.7296 1.65781C60.8606 4.14456 62.3075 6.83115 61.0846 9.39687C57.5228 19.1142 47.6509 24.2248 39.5681 29.7139C29.1154 36.5145 17.7249 41.9736 7.96545 49.7856C2.51152 54.0936 -0.763761 61.5011 1.54021 68.3287C2.32881 69.8402 2.24919 72.6135 3.91083 73.3712C5.72608 71.2113 5.17906 67.7048 6.77844 65.2772C10.1107 56.7607 19.3549 53.4818 26.7708 49.4578C41.5818 41.9411 57.2762 35.4439 70.1193 24.6942C76.8554 19.1567 81.7971 12.2661 77.9347 3.8992C74.8304 3.10625 71.5793 2.66382 68.8525 2.10663C65.7813 1.7018 60.665 0.430908 60.665 0.430908L60.7296 1.65781Z" fill="url(#paint0_linear_303_480)"/>
<path fill-rule="evenodd" clip-rule="evenodd" d="M44.9582 36.455C42.3019 37.5805 39.9675 39.642 38.6211 42.2005C37.3519 44.6271 38.2556 47.6286 40.174 49.4373C42.2354 51.6555 44.7206 54.2077 44.3613 57.4925C44.3493 59.0506 43.4367 60.562 43.7104 62.1117C44.358 62.8075 45.147 61.6382 45.6588 61.2792C48.7945 58.0394 51.297 54.2359 53.7148 50.4467C55.0774 48.0992 56.7038 45.2947 55.6375 42.5106C54.9369 40.8051 53.2047 39.8032 51.8338 38.6735C50.0847 37.5719 48.2467 36.0102 46.0538 36.1806C45.6794 36.2292 45.313 36.3277 44.9582 36.4548L44.9582 36.455Z" fill="#32D066"/>
<defs>
<linearGradient id="paint0_linear_303_480" x1="34.0038" y1="71.0925" x2="33.1418" y2="1.58978" gradientUnits="userSpaceOnUse">
<stop stop-color="#1E3057"/>
<stop offset="1" stop-color="#428181"/>
</linearGradient>
</defs>
</svg>
