<svg width="190" height="75" viewBox="0 0 190 75" fill="none" xmlns="http://www.w3.org/2000/svg">
<path fill-rule="evenodd" clip-rule="evenodd" d="M187.109 0.579988C180.849 1.89848 175.254 4.4936 168.794 5.41486C149.428 8.52493 129.818 10.7633 110.401 13.7008C94.8578 16.1283 78.9533 18.1754 64.3465 22.8187C48.6986 27.9589 35.8287 36.9507 28.1997 47.4945C26.6575 49.9869 24.5149 52.538 24.4589 55.2667C25.0439 56.1214 26.3514 54.8119 26.9943 54.5636C35.0519 49.2986 44.0837 44.5777 54.5127 41.7535C62.9345 39.3973 71.9932 38.3979 80.9156 37.542C98.0695 36.3423 115.103 38.2213 131.75 40.4602C151.48 43.3175 157.267 44.376 176.757 47.936C180.672 48.5146 184.265 49.8399 188.194 50.3245C190.354 50.1254 189.482 48.2164 189.314 47.2959C188.663 34.4278 189.815 17.9325 189.134 8.50702C189.466 6.89864 189.182 5.86475 189.159 4.6696C189.36 3.34499 189.339 2.99977 189.291 2.02935C189.399 0.840056 189.607 0.599946 189.288 0.350681C188.317 0.164131 188.094 0.478844 187.109 0.579988Z" fill="url(#paint0_linear_303_477)"/>
<path fill-rule="evenodd" clip-rule="evenodd" d="M65.0296 26.0894C53.8295 27.8297 44.1838 32.5086 34.9939 37.0555C29.5607 39.6801 24.9394 43.0639 21.8353 47.0709C17.5782 52.478 13.6536 58.0569 10.9265 63.8844C10.7965 64.7257 9.77873 65.9119 10.6365 66.6338C12.3625 66.3378 13.1115 64.8689 14.4783 64.1612C25.1284 57.1178 37.9247 51.3558 52.0353 48.2225C69.4903 44.3363 87.9177 44.9601 105.877 44.6832C121.461 44.4833 137.025 44.9798 152.61 44.5513C155.874 44.2734 159.664 44.4179 162.441 42.9894C163.291 42.3706 161.872 41.7991 162.158 41.1621C160.831 41.4311 159.763 40.2849 158.511 40.0803C140.868 33.6998 122.591 27.2384 102.238 25.7006C91.0305 24.8743 79.6128 24.7444 68.3336 25.6762C67.2271 25.7899 66.1246 25.9259 65.0296 26.0895L65.0296 26.0894Z" fill="url(#paint1_linear_303_477)"/>
<defs>
<linearGradient id="paint0_linear_303_477" x1="56.5854" y1="25.0242" x2="188.774" y2="37.1865" gradientUnits="userSpaceOnUse">
<stop stop-color="#5F9197"/>
<stop offset="1" stop-color="#43616F"/>
</linearGradient>
<linearGradient id="paint1_linear_303_477" x1="6.32315" y1="50.722" x2="154.857" y2="12.1999" gradientUnits="userSpaceOnUse">
<stop stop-color="#7285A7"/>
<stop offset="1" stop-color="#424B6B"/>
</linearGradient>
</defs>
</svg>
