<svg width="247" height="75" viewBox="0 0 247 75" fill="none" xmlns="http://www.w3.org/2000/svg">
<path fill-rule="evenodd" clip-rule="evenodd" d="M240.05 0.542725C231.885 1.1942 224.132 3.81826 215.848 3.85723C190.898 4.47581 165.927 3.7892 140.969 4.14881C120.967 4.5464 100.64 4.32349 81.0852 8.10171C60.0832 12.3885 41.2816 22.7812 28.464 36.4566C25.757 39.7415 22.2888 42.9911 21.3442 46.913C21.7936 48.2618 23.8308 46.6352 24.7056 46.4055C36.3599 40.4244 49.0447 35.4219 62.8491 33.432C74.0209 31.7164 85.5452 32.0834 96.8549 32.63C118.455 34.3237 138.919 40.4307 158.79 46.9798C182.276 55.0351 207.387 59.8861 230.35 68.9063C235.006 70.5215 239.025 73.1489 243.729 74.6313C246.464 74.7754 245.998 71.8497 246.085 70.4894C246.581 50.0498 246.776 29.5945 246.158 9.15605C245.744 7.20957 245.96 5.04821 245.202 3.20642C244.1 3.1388 244.783 1.75478 244.61 1.3545C243.675 1.80969 244.291 1.28958 243.977 0.86663C242.835 0.403989 241.3 0.593456 240.05 0.542725Z" fill="url(#paint0_linear_303_474)"/>
<path fill-rule="evenodd" clip-rule="evenodd" d="M80.8827 12.9512C66.4725 13.2247 53.0421 18.0439 40.2179 22.7637C32.6564 25.4625 25.8555 29.4176 20.7312 34.5735C13.7317 41.5175 7.08844 48.7754 1.84645 56.6306C1.41582 57.8173 -0.223445 59.3238 0.605792 60.5355C2.83552 60.4533 4.23303 58.4855 6.15039 57.7383C21.5814 49.7115 39.2558 43.9598 57.7123 42.2593C80.5467 40.1411 103.137 44.717 125.438 47.9016C144.775 50.7229 163.866 54.5442 183.278 57.0364C187.405 57.2872 192.045 58.2516 195.938 56.7467C197.187 56.0243 195.616 54.9177 196.174 54.0565C194.446 54.1793 193.494 52.3143 192.01 51.7696C172.236 39.0527 151.704 26.0927 127.026 19.8153C113.43 16.388 99.3503 13.9225 85.1015 13.0149C83.6966 12.958 82.2894 12.9341 80.8827 12.9513V12.9512Z" fill="url(#paint1_linear_303_474)"/>
<defs>
<linearGradient id="paint0_linear_303_474" x1="54.7376" y1="12.2689" x2="243.296" y2="52.7316" gradientUnits="userSpaceOnUse">
<stop stop-color="#64999E"/>
<stop offset="1" stop-color="#43616F"/>
</linearGradient>
<linearGradient id="paint1_linear_303_474" x1="0.37502" y1="36.7407" x2="196.434" y2="36.7407" gradientUnits="userSpaceOnUse">
<stop stop-color="#7589AB"/>
<stop offset="1" stop-color="#3F4767"/>
</linearGradient>
</defs>
</svg>
