<svg width="51" height="127" viewBox="0 0 51 127" fill="none" xmlns="http://www.w3.org/2000/svg">
<path fill-rule="evenodd" clip-rule="evenodd" d="M9.93866 0.546685C9.64893 1.05666 10.4565 1.66485 10.6168 2.14952C14.2307 7.83149 18.6442 13.0771 21.3143 19.2997C23.7094 25.4287 22.8125 32.1551 22.3843 38.5557C21.9665 44.8441 20.6169 51.032 20.2579 57.3238C20.0197 63.3797 20.9871 69.4449 23.0239 75.1498C24.9568 81.2057 28.0282 86.7995 31.172 92.29C33.5853 96.5205 34.5102 101.445 34.2191 106.275C33.9832 113.012 33.3818 119.737 33.163 126.477C33.4476 126.606 34.4691 127.05 34.2298 126.394C34.4519 125.957 34.9547 125.727 35.3581 125.777C35.1622 125.266 35.874 124.939 36.263 125.063C36.4326 124.142 37.55 123.609 38.0476 122.824C43.2581 117.115 45.1551 109.266 45.6377 101.747C46.0759 93.386 45.9558 84.7268 42.8273 76.8325C40.7305 71.0976 37.4992 65.8754 34.9615 60.3499C32.6747 55.4003 33.0463 49.8486 32.8168 44.5346C32.6826 36.8012 32.1452 28.8232 28.7473 21.7364C25.237 14.1195 19.1496 8.09453 12.9533 2.61C11.9928 1.90173 11.065 0.953069 9.93866 0.546631V0.546685Z" fill="url(#paint0_linear_303_466)"/>
<path fill-rule="evenodd" clip-rule="evenodd" d="M3.15263 64.6901C1.9054 64.683 2.88895 66.0764 2.98186 66.6888C5.1051 72.2947 5.79511 78.2844 7.44373 84.0183C9.32784 89.056 13.567 93.4793 18.8694 94.8186C23.2025 95.5557 28.0987 94.8028 31.4031 91.738C31.9147 91.5502 31.4552 90.8336 32.0872 91.1528C32.081 89.569 32.9827 87.9322 32.6405 86.2593C32.4925 83.0218 30.1504 80.1969 27.0605 79.2918C22.9884 77.6264 18.2016 77.1305 15.0047 73.8214C11.4182 70.8664 8.39033 67.0883 4.22832 64.8966C3.88846 64.7601 3.52227 64.6586 3.15263 64.6901Z" fill="#42BA53"/>
<path fill-rule="evenodd" clip-rule="evenodd" d="M0.578125 31.3827C0.779966 32.1964 2.12434 32.4934 2.68254 33.1456C7.18462 37.6872 10.0308 43.8764 15.5119 47.4332C18.6533 49.3619 22.5696 50.3355 26.2175 49.7073C26.3067 48.3457 25.5522 46.8803 24.9721 45.6281C21.4363 39.4935 15.3007 35.1499 8.78536 32.6204C6.18248 31.7602 3.33598 30.9578 0.595405 31.3671L0.578125 31.3827Z" fill="#57C37E"/>
<path fill-rule="evenodd" clip-rule="evenodd" d="M49.1758 37.5493C48.4544 38.563 47.9637 39.8141 46.9793 40.6811C43.9997 44.1239 39.6896 47.172 39.2169 52.0779C38.6847 57.8384 38.9056 63.6584 39.2364 69.4265C39.548 70.9774 39.1074 72.9039 39.9793 74.2666C41.2616 74.6948 42.3673 73.2914 43.3033 72.6001C47.1367 68.8962 48.3726 63.4755 49.083 58.3907C49.9393 52.0939 51.6075 45.6109 50.2212 39.2719C49.9776 38.7314 49.7686 37.7672 49.1759 37.5493H49.1758Z" fill="#427FA5"/>
<defs>
<linearGradient id="paint0_linear_303_466" x1="9.87649" y1="0.54664" x2="38.0054" y2="122.834" gradientUnits="userSpaceOnUse">
<stop stop-color="#488C9C"/>
<stop offset="1" stop-color="#1B2A52"/>
</linearGradient>
</defs>
</svg>
