<svg width="113" height="59" viewBox="0 0 113 59" fill="none" xmlns="http://www.w3.org/2000/svg">
<path fill-rule="evenodd" clip-rule="evenodd" d="M0.386889 0.302002C0.328802 2.18992 1.83284 4.25863 2.56227 6.36488C2.96524 11.3338 6.70365 15.317 8.53004 19.6778C12.4626 27.1498 16.1743 34.736 21.658 40.6474C26.84 46.4342 33.7679 50.7598 41.4345 52.2874C46.4942 53.5546 51.8058 54.4381 56.2405 57.3712C56.6573 57.6784 58.1617 59.3095 58.3492 58.5701C59.2552 55.4327 59.1208 51.1918 59.6216 47.9765C59.8688 44.8624 60.0206 41.3729 59.7089 38.2406C59.3878 36.2448 59.1498 39.5997 57.2668 39.2083C53.9815 38.4676 46.4347 35.4495 43.6083 33.53C39.5983 31.0085 36.4288 28.0499 34.1209 23.4019C32.0534 20.2621 31.3542 15.6538 28.8686 10.9004C28.031 6.77982 26.6679 5.50559 26.6679 5.50559C26.6679 5.50559 25.4754 5.61107 22.6404 4.77097C17.8716 3.68804 22.6404 4.77101 17.9459 3.96728C17.586 3.89939 12.1471 2.71758 11.7864 2.64353L0.386889 0.302002Z" fill="url(#paint0_linear_303_490)"/>
<path fill-rule="evenodd" clip-rule="evenodd" d="M83.2168 18.5775C82.4167 18.9497 82.7457 20.2516 82.5588 20.9688C82.1504 24.5621 81.5373 28.2406 81.6491 31.747C81.8007 32.154 82.9643 32.207 83.2139 32.0335C82.9795 31.5941 83.9695 31.8861 84.1786 31.6423C88.0673 30.6453 91.4347 28.3518 94.4097 25.7291C95.368 24.7777 96.7358 24.0263 97.2466 22.7295C97.0614 22.1023 96.0385 22.2891 95.557 21.9929C91.55 20.9084 87.2309 19.6185 83.2168 18.5774V18.5775Z" fill="#1F3157"/>
<path fill-rule="evenodd" clip-rule="evenodd" d="M61.5108 15.7728C59.263 16.1932 57.202 17.413 55.3594 18.7319C50.9243 22.1011 49.4803 28.0457 49.8786 33.3631C50.2599 39.3398 52.5215 45.5472 57.4161 49.2881C62.7694 53.4277 69.4671 55.2698 75.9625 56.7487C77.2283 56.9171 78.4297 57.7412 79.731 57.2324C82.3261 56.4639 85.3571 55.0669 86.0035 52.152C86.8256 48.4917 86.6034 44.6496 86.0201 40.9693C85.7783 39.0412 84.7734 36.9977 82.7597 36.4393C78.9758 35.2852 74.9081 35.3128 71.1908 33.8808C67.6829 32.5571 64.5665 31.2252 62.8086 27.7789C61.2901 24.3252 62.2019 20.9216 62.6168 17.1651C62.5348 16.8329 61.8296 15.7515 61.5125 15.7728H61.5108Z" fill="url(#paint1_linear_303_490)"/>
<path fill-rule="evenodd" clip-rule="evenodd" d="M13.6239 24.5103C9.45898 24.5605 5.1299 26.541 3.07318 30.298C0.431292 34.8682 1.47288 40.5527 3.57734 45.1137C4.73896 47.5002 5.78418 50.0081 7.40037 52.1265C7.83565 52.8154 8.66157 52.711 9.14633 52.1631C11.2474 50.2829 12.326 47.4584 14.7822 45.9352C18.7336 43.2126 23.2192 40.4015 24.8885 35.6355C26.3486 32.2294 24.5602 28.184 21.4959 26.3363C19.2019 24.8049 16.3102 24.535 13.6239 24.5105V24.5103Z" fill="#6AE473"/>
<path fill-rule="evenodd" clip-rule="evenodd" d="M91.1962 39.6191C85.5121 39.4171 80.2821 42.6443 76.4655 46.6178C76.0388 46.9795 75.3768 47.7955 76.2283 48.1175C78.767 49.4791 81.5385 50.5805 84.4179 50.9077C88.7164 51.3394 92.9753 50.3203 96.977 48.8279C102.037 47.1318 106.831 44.3908 112.198 43.8026C113.009 43.7271 112.617 42.8094 112.089 42.6246C108.319 40.337 103.713 40.4743 99.4745 39.9833C96.7205 39.774 93.96 39.5845 91.1964 39.6191H91.1962Z" fill="#2E7380"/>
<defs>
<linearGradient id="paint0_linear_303_490" x1="6.21823" y1="0.611202" x2="64.9281" y2="52.6354" gradientUnits="userSpaceOnUse">
<stop stop-color="#458689"/>
<stop offset="1" stop-color="#213F43"/>
</linearGradient>
<linearGradient id="paint1_linear_303_490" x1="49.8154" y1="21.1745" x2="86.5198" y2="49.5355" gradientUnits="userSpaceOnUse">
<stop stop-color="#3F7A7D"/>
<stop offset="1" stop-color="#1D2E55"/>
</linearGradient>
</defs>
</svg>
