<svg width="83" height="61" viewBox="0 0 83 61" fill="none" xmlns="http://www.w3.org/2000/svg">
<path fill-rule="evenodd" clip-rule="evenodd" d="M66.6503 0.456607C62.2331 0.570194 58.5502 3.41134 54.5985 5.03544C50.065 7.15616 44.9694 7.43948 40.0781 8.4041C34.3966 9.44752 28.1725 9.76789 23.3292 13.2656C19.7464 15.8666 19.06 20.9553 20.6043 24.8878C21.9176 28.268 24.1265 31.6135 27.4439 33.2739C30.3062 34.2131 33.3941 33.2039 36.0196 31.9934C39.3471 30.4324 42.9426 29.9496 46.5656 30.3324C53.3404 30.7715 59.9674 32.4873 66.6521 33.6275C69.5674 34.1068 72.481 34.9232 75.3761 35.3159C76.3361 32.134 76.6846 28.5768 79.0227 25.9968C80.0784 24.6063 81.5918 23.5474 82.5404 22.1262C81.3628 16.1689 79.2238 10.2996 75.7682 5.27859C73.6482 2.39978 70.2966 0.360828 66.6503 0.456607V0.456607Z" fill="url(#paint0_linear_303_503)"/>
<path fill-rule="evenodd" clip-rule="evenodd" d="M57.7724 22.6916C52.4208 22.8455 47.052 23.2437 41.8391 24.0242C39.3979 24.4614 36.5321 25.4434 36.5004 27.2571C36.3152 28.6116 37.0897 29.9967 36.7282 31.3231C35.3099 32.403 32.7321 32.0182 30.7865 32.1272C25.7463 32.2086 20.0522 32.593 16.3405 34.9713C12.4702 37.7307 12.871 41.9076 15.3389 45.028C16.4978 46.7236 19.1532 47.7248 21.9023 48.1712C29.6671 49.4577 37.7702 49.5779 45.7489 49.8335C52.0783 49.8572 58.4769 50.0241 64.7464 49.3815C69.0094 48.8952 73.9441 47.9551 75.9556 45.3042C78.0027 42.3978 76.5282 39.1382 75.449 36.2026C73.8382 32.657 72.0903 29.0138 68.6439 25.9767C66.3562 24.047 62.7733 22.5129 58.7923 22.6871C58.4524 22.6846 58.1126 22.6895 57.7728 22.6914L57.7724 22.6916Z" fill="url(#paint1_linear_303_503)"/>
<path fill-rule="evenodd" clip-rule="evenodd" d="M26.2461 37.5862C20.8754 37.7463 16.655 41.614 12.7059 44.8124C8.10725 48.69 3.93538 53.0594 0.243553 57.8011C-0.58193 58.6012 0.926739 59.1507 1.55295 59.2235C7.09664 60.6971 12.8667 59.6632 18.506 59.6292C23.9606 59.2317 29.6543 59.5085 34.8439 57.5243C38.499 56.1629 41.5806 52.6548 41.2989 48.5814C41.1744 44.8728 37.9986 42.1933 35.1201 40.3238C32.4495 38.7407 29.3845 37.5815 26.2461 37.5862V37.5862Z" fill="url(#paint2_linear_303_503)"/>
<defs>
<linearGradient id="paint0_linear_303_503" x1="19.8281" y1="17.8846" x2="82.5405" y2="17.8846" gradientUnits="userSpaceOnUse">
<stop stop-color="#836FBB"/>
<stop offset="1" stop-color="#503F8A"/>
</linearGradient>
<linearGradient id="paint1_linear_303_503" x1="13.4572" y1="36.2719" x2="76.9799" y2="36.2719" gradientUnits="userSpaceOnUse">
<stop stop-color="#AA96DB"/>
<stop offset="1" stop-color="#74649D"/>
</linearGradient>
<linearGradient id="paint2_linear_303_503" x1="0.00241374" y1="48.7997" x2="41.3169" y2="48.7997" gradientUnits="userSpaceOnUse">
<stop stop-color="#C1BAD5"/>
<stop offset="1" stop-color="#7A68BD"/>
</linearGradient>
</defs>
</svg>
