<svg width="97" height="67" viewBox="0 0 97 67" fill="none" xmlns="http://www.w3.org/2000/svg">
<path fill-rule="evenodd" clip-rule="evenodd" d="M9.73354 65.9503C8.03698 65.5047 6.78735 64.3654 7.05927 63.512C7.40623 62.423 8.72997 60.6737 12.2163 56.6967C15.8052 52.603 17.1316 50.8845 18.1156 49.0539C20.8665 43.936 17.5989 40.8931 6.41371 38.1569C2.80725 37.2747 1.42722 36.8046 0.996394 36.3115C0.138067 35.3292 0.289191 34.6403 1.51725 33.937C3.01099 33.0814 7.56035 28.3309 11.5941 23.4145C13.426 21.1817 15.6341 18.7401 16.5011 17.9885C19.0029 15.8199 20.2099 15.541 32.437 14.3059C60.5149 11.4698 73.0663 8.91437 85.4804 3.5063C94.6033 -0.467995 96.7599 -0.550197 95.9314 3.10807C95.0293 7.09148 89.7375 19.1171 86.4623 24.6267C78.0897 38.7111 68.4133 47.0164 51.3572 54.7577C41.5789 59.1958 33.7969 61.8122 22.411 64.4899C15.4913 66.1173 11.9311 66.5273 9.73354 65.9503Z" fill="url(#paint0_linear_303_391)"/>
<defs>
<linearGradient id="paint0_linear_303_391" x1="1.11504" y1="60.1724" x2="96.0565" y2="4.857" gradientUnits="userSpaceOnUse">
<stop stop-color="#396D8D"/>
<stop offset="1" stop-color="#62BEC1"/>
</linearGradient>
</defs>
</svg>
