<svg width="115" height="33" viewBox="0 0 115 33" fill="none" xmlns="http://www.w3.org/2000/svg">
<path fill-rule="evenodd" clip-rule="evenodd" d="M63.6019 0.0764419C50.7904 0.233515 38.0797 2.26757 25.4954 4.50803C16.8385 6.35479 8.32596 10.2176 2.14453 16.6697C0.244055 18.463 0.43195 21.6054 2.56396 23.1318C7.1739 26.8282 12.8 29.1184 18.3753 30.9423C25.5921 33.0168 33.2325 31.7419 40.5383 30.8439C48.8663 29.2377 57.3388 28.766 65.7341 27.6926C74.915 25.9378 82.8793 20.6764 91.3604 17.0265C98.9396 13.2355 107.062 10.4778 114.361 6.16654C114.91 5.30106 112.843 5.74302 112.484 5.6106C97.9499 5.33841 83.9652 0.135544 69.3907 0.108044C67.4615 0.0632236 65.5315 0.063938 63.6019 0.0764419Z" fill="url(#paint0_linear_303_383)"/>
<defs>
<linearGradient id="paint0_linear_303_383" x1="15.0063" y1="22.4498" x2="112.48" y2="5.58477" gradientUnits="userSpaceOnUse">
<stop stop-color="#2C407E"/>
<stop offset="1" stop-color="#81B492"/>
</linearGradient>
</defs>
</svg>
