<svg width="179" height="78" viewBox="0 0 179 78" fill="none" xmlns="http://www.w3.org/2000/svg">
<path fill-rule="evenodd" clip-rule="evenodd" d="M96.9518 45.6958C95.1192 45.0639 92.9293 44.0835 91.3275 43.1775L90.332 42.6146L90.7671 39.4272C91.2785 35.6813 93.1284 27.7396 94.1861 24.7494C97.1593 16.3444 100.806 11.1464 106.342 7.42091C116.331 0.698877 130.351 -1.31947 148.679 1.32589C150.182 1.54288 152.69 1.83512 154.25 1.97484C157.845 2.29699 158.823 2.48597 160.184 3.121C161.552 3.76072 162.159 4.38588 161.974 4.96527C161.898 5.20123 160.773 6.54414 159.474 7.949C158.174 9.35381 155.507 12.3477 153.548 14.602C151.588 16.8562 149.102 19.6324 148.024 20.7712C140.531 28.6804 133.57 33.1481 120.985 38.1272C115.24 40.3998 113.498 41.2806 109.092 44.1386C106.502 45.8193 105.275 46.4896 104.28 46.7675C103.011 47.1221 102.838 47.1192 100.801 46.7116C99.622 46.4766 97.8901 46.0181 96.952 45.6946L96.9518 45.6958Z" fill="url(#paint0_linear_303_382)"/>
<path fill-rule="evenodd" clip-rule="evenodd" d="M101.912 59.5537C95.6913 56.2511 92.755 53.2543 92.1121 49.5516C91.6749 47.0334 92.0412 45.2006 93.4109 43.0529C97.0647 37.3238 102.838 32.4721 108.569 30.3137C113.25 28.551 120.191 27.8019 126.782 28.348C128.03 28.4512 131.686 28.8683 134.906 29.2743C153.96 31.6773 162.641 31.736 173.03 29.5322C175.052 29.1033 177.058 28.7442 177.489 28.7342C178.631 28.7076 178.625 29.0011 177.447 30.7353C173.635 36.3503 162.949 46.6214 155.329 51.996C141.063 62.0585 126.981 65.8695 113.219 63.3927C110.703 62.9401 104.01 60.6675 101.912 59.5537L101.912 59.5537Z" fill="url(#paint1_linear_303_382)"/>
<path fill-rule="evenodd" clip-rule="evenodd" d="M76.0856 50.8847C68.9626 52.8574 62.5873 53.6079 56.9063 53.1423C45.6108 52.2167 35.8338 46.4263 23.2378 33.2025C22.3175 32.2363 19.4775 29.5297 16.9269 27.1878C12.6418 23.2536 12.0976 22.8041 9.76849 21.274C3.6693 17.2673 2.66175 16.58 1.67386 15.7523C1.09818 15.2699 0.57757 14.7399 0.516912 14.5744C0.310141 14.0104 1.69924 13.77 9.8846 12.9532C24.8186 11.463 37.1642 10.7544 50.3335 10.6318C68.0612 10.4667 80.5207 11.8023 88.6901 14.7433C93.056 16.3151 95.9693 18.0713 99.7754 21.4256C104.767 25.825 107.103 29.3726 106.158 31.122C105.729 31.916 104.873 32.4423 101.139 34.2049C94.9472 37.1282 92.738 38.7474 89.3178 42.8693C86.9593 45.7116 85.1707 47.3598 83.6015 48.1366C81.9236 48.9674 78.5357 50.2061 76.0855 50.8846L76.0856 50.8847Z" fill="url(#paint2_linear_303_382)"/>
<path fill-rule="evenodd" clip-rule="evenodd" d="M56.6196 77.443C56.5721 77.3508 56.4263 76.652 56.2956 75.8904C56.0265 74.3221 55.7646 73.4936 54.2143 69.3078C52.7099 65.2455 52.4765 64.5351 52.0333 62.6671C51.4314 60.1297 51.349 58.0428 51.7544 55.6032C51.9719 54.2943 53.599 50.501 54.4284 49.3691C57.9002 44.6311 62.7209 40.9008 67.8677 38.9699C75.2231 36.2103 84.2522 37.6261 92.7282 42.8681C95.7217 44.7194 100.318 48.3361 101.126 49.4763C101.84 50.4842 101.924 51.0976 101.604 52.9481C100.758 57.8205 98.6678 63.6782 96.6643 66.7871C92.616 73.0691 86.7651 75.8304 75.0694 76.9787C71.1936 77.3592 63.962 77.8967 62.1403 77.9397C58.9455 78.0149 56.8155 77.8236 56.6196 77.443V77.443Z" fill="url(#paint3_linear_303_382)"/>
<defs>
<linearGradient id="paint0_linear_303_382" x1="101.782" y1="37.5892" x2="140.606" y2="0.170828" gradientUnits="userSpaceOnUse">
<stop stop-color="#404E87"/>
<stop offset="1" stop-color="#588DAF"/>
</linearGradient>
<linearGradient id="paint1_linear_303_382" x1="97.5555" y1="52.3091" x2="178.328" y2="28.1376" gradientUnits="userSpaceOnUse">
<stop stop-color="#16153C"/>
<stop offset="1" stop-color="#348594"/>
</linearGradient>
<linearGradient id="paint2_linear_303_382" x1="82.088" y1="42.3893" x2="53.1314" y2="-5.29552" gradientUnits="userSpaceOnUse">
<stop stop-color="#3A3089"/>
<stop offset="1" stop-color="#6B88BA"/>
</linearGradient>
<linearGradient id="paint3_linear_303_382" x1="96.952" y1="45.6945" x2="56.644" y2="77.4739" gradientUnits="userSpaceOnUse">
<stop stop-color="#1F112E"/>
<stop offset="1" stop-color="#36579B"/>
</linearGradient>
</defs>
</svg>
