<svg width="68" height="98" viewBox="0 0 68 98" fill="none" xmlns="http://www.w3.org/2000/svg">
<path fill-rule="evenodd" clip-rule="evenodd" d="M65.2053 0.617169C63.1022 2.02305 61.922 4.5964 60.2031 6.44119C53.7157 15.0992 44.6332 21.2943 35.1773 26.3133C24.545 32.4961 12.4374 37.9798 5.77704 48.881C1.36818 56.1733 0.312545 64.8445 0.271217 73.2082C0.28454 78.8206 -0.523673 84.566 0.58614 90.1058C1.65924 93.8238 5.07267 96.496 8.92184 96.7621C22.8289 98.4614 36.6555 92.5487 47.1163 83.6886C52.64 79.0355 57.0951 72.8126 58.2553 65.5574C61.2758 50.729 64.3697 35.8849 66.3715 20.8788C66.889 14.6221 67.6939 8.19483 66.425 1.98586C66.239 1.44857 65.944 0.529541 65.2053 0.617169Z" fill="url(#paint0_linear_303_389)"/>
<defs>
<linearGradient id="paint0_linear_303_389" x1="54.9064" y1="12.6679" x2="13.2387" y2="86.5308" gradientUnits="userSpaceOnUse">
<stop stop-color="#70F569"/>
<stop offset="1" stop-color="#109976"/>
</linearGradient>
</defs>
</svg>
