<svg width="110" height="69" viewBox="0 0 110 69" fill="none" xmlns="http://www.w3.org/2000/svg">
<path fill-rule="evenodd" clip-rule="evenodd" d="M103.237 68.0543C102.021 67.8486 99.1409 67.0601 96.838 66.3021C94.535 65.5441 87.8888 64.0773 82.0685 63.0424C68.7219 60.6693 62.6522 59.0588 55.2157 55.9174C47.8153 52.7912 41.801 48.9707 36.9268 44.2996C33.7931 41.2965 32.4299 39.4641 29.001 33.6458C21.326 20.6228 17.154 16.369 6.01496 10.2091C2.47291 8.25034 0.208924 6.68854 0.352657 6.30291C1.25691 3.8778 26.8344 0.622676 47.0626 0.358359C65.3232 0.119403 78.0263 3.53703 88.6368 11.5427C91.8688 13.9813 93.9392 16.1354 98.088 21.3763C104.23 29.1353 106.614 33.8208 108.546 41.9313C110.544 50.3167 110.392 63.0164 108.257 65.991C106.755 68.0851 105.782 68.4848 103.237 68.0542L103.237 68.0543Z" fill="url(#paint0_linear_303_388)"/>
<defs>
<linearGradient id="paint0_linear_303_388" x1="88.3443" y1="50.4277" x2="37.1343" y2="-6.73295" gradientUnits="userSpaceOnUse">
<stop stop-color="#1A5C76"/>
<stop offset="1" stop-color="#6BC491"/>
</linearGradient>
</defs>
</svg>
