<svg width="98" height="72" viewBox="0 0 98 72" fill="none" xmlns="http://www.w3.org/2000/svg">
<path fill-rule="evenodd" clip-rule="evenodd" d="M96.8504 0.0594187C95.0957 1.44484 94.074 3.70643 92.2274 5.08574C84.8263 12.6683 73.8371 14.2446 63.9013 16.0822C49.9123 18.7248 35.167 21.5695 23.6314 30.4698C15.6873 37.0614 8.13714 44.3031 2.02015 52.6445C-0.52132 56.0413 0.425031 61.0681 3.64213 63.6953C10.0149 69.4478 18.9495 71.457 27.3252 71.7559C37.3726 72.2791 48.0688 70.2497 55.9407 63.6303C63.4239 56.7129 67.4738 47.0167 74.2972 39.52C83.0683 29.7989 91.6378 19.3634 95.8436 6.7671C96.3692 4.6437 97.5948 2.27968 97.0361 0.1058C96.9831 0.0666158 96.9155 0.0507892 96.8504 0.0594187Z" fill="url(#paint0_linear_303_384)"/>
<defs>
<linearGradient id="paint0_linear_303_384" x1="37.6634" y1="60.0468" x2="79.957" y2="12.1376" gradientUnits="userSpaceOnUse">
<stop stop-color="#0E6482"/>
<stop offset="1" stop-color="#70AAA3"/>
</linearGradient>
</defs>
</svg>
