<svg width="42" height="42" viewBox="0 0 42 42" fill="none" xmlns="http://www.w3.org/2000/svg">
<path fill-rule="evenodd" clip-rule="evenodd" d="M41.5853 20.7523C41.5853 23.4434 41.0548 26.108 40.0242 28.5942C38.9936 31.0804 37.483 33.3394 35.5787 35.2423C33.6743 37.1451 31.4135 38.6545 28.9254 39.6843C26.4372 40.7141 23.7705 41.2442 21.0773 41.2442C15.6383 41.2442 10.4219 39.0852 6.57595 35.2423C2.72996 31.3993 0.569335 26.1871 0.569336 20.7523C0.569336 15.3176 2.72996 10.1054 6.57595 6.26243C10.4219 2.41947 15.6383 0.260504 21.0773 0.260498C23.7705 0.260497 26.4372 0.790549 28.9254 1.82036C31.4135 2.85017 33.6743 4.35957 35.5787 6.26241C37.483 8.16525 38.9936 10.4243 40.0242 12.9105C41.0548 15.3966 41.5853 18.0613 41.5853 20.7523Z" fill="#F4F4F4"/>
</svg>
