<svg width="594" height="477" viewBox="0 0 594 477" fill="none" xmlns="http://www.w3.org/2000/svg">
<path fill-rule="evenodd" clip-rule="evenodd" d="M66.2007 258.481L115.825 269.216L98.6373 471.99L74.6019 473.269L66.2007 258.481Z" fill="url(#paint0_linear_303_396)"/>
<path fill-rule="evenodd" clip-rule="evenodd" d="M286.464 160.437L593.519 212.525L582.461 369.545L0.75 252.937L286.464 160.437Z" fill="#FEFEFE"/>
<path fill-rule="evenodd" clip-rule="evenodd" d="M286.464 160.437L593.519 212.525L582.461 369.545L0.75 252.937L286.464 160.437Z" fill="url(#paint1_linear_303_396)"/>
<path fill-rule="evenodd" clip-rule="evenodd" d="M489.592 359.531L541.44 371.341L522.126 479.147L487.707 475.441L489.592 359.531Z" fill="#524F7C"/>
<path fill-rule="evenodd" clip-rule="evenodd" d="M489.592 359.531L541.44 371.341L522.126 479.147L487.707 475.441L489.592 359.531Z" fill="url(#paint2_linear_303_396)"/>
<path fill-rule="evenodd" clip-rule="evenodd" d="M264.842 388.639L282.553 382.621L333.124 399.351L297.836 410.261L264.842 388.639Z" fill="url(#paint3_linear_303_396)"/>
<path fill-rule="evenodd" clip-rule="evenodd" d="M268.456 322.972L288.035 327.327L281.892 389.335C281.892 389.335 280.615 390.397 277.72 391.011C275.543 391.473 272.69 391.134 271.007 390.828C268.226 390.321 266.781 389.893 265.61 389.202C263.282 387.827 262.038 385.993 262.038 385.993L268.456 322.972Z" fill="#524F7F"/>
<path fill-rule="evenodd" clip-rule="evenodd" d="M268.456 322.972L288.035 327.327L281.892 389.335C281.892 389.335 280.615 390.397 277.72 391.011C275.543 391.473 272.69 391.134 271.007 390.828C268.226 390.321 266.781 389.893 265.61 389.202C263.282 387.827 262.038 385.993 262.038 385.993L268.456 322.972Z" fill="url(#paint4_linear_303_396)"/>
<path fill-rule="evenodd" clip-rule="evenodd" d="M0.75 252.937L582.461 369.545L582.053 387.613L0.791439 271.325L0.75 252.937Z" fill="#9695BB"/>
<path fill-rule="evenodd" clip-rule="evenodd" d="M593.519 212.525L582.053 387.613L582.461 369.545L593.519 212.525Z" fill="#67629D"/>
<path fill-rule="evenodd" clip-rule="evenodd" d="M432.892 210.414L480.664 218.621C480.664 218.621 473.169 233.001 470.411 243.158C467.591 253.541 465.513 261.851 465.513 261.851L425.795 251.754L432.892 210.414Z" fill="url(#paint5_linear_303_396)"/>
<path fill-rule="evenodd" clip-rule="evenodd" d="M322.958 191.04L432.892 210.414L425.575 246.969L267.119 214.465L322.958 191.04Z" fill="#524949"/>
<path fill-rule="evenodd" clip-rule="evenodd" d="M322.958 191.04L432.892 210.414L425.575 246.969L267.119 214.465L322.958 191.04Z" fill="url(#paint6_linear_303_396)"/>
<path fill-rule="evenodd" clip-rule="evenodd" d="M432.892 210.414L432.62 215.603L425.795 252.271L425.575 246.969L432.892 210.414Z" fill="#494141"/>
<path fill-rule="evenodd" clip-rule="evenodd" d="M267.119 213.948L425.575 246.452L425.795 251.754L267.109 220.044L267.119 213.948Z" fill="#675B5B"/>
<path fill-rule="evenodd" clip-rule="evenodd" d="M346.637 167.449L395.529 172.618L391.132 211.132L342.24 202.861L346.637 167.449Z" fill="#675B5B"/>
<path fill-rule="evenodd" clip-rule="evenodd" d="M346.637 167.449L395.529 172.618L391.132 211.132L342.24 202.861L346.637 167.449Z" fill="url(#paint7_linear_303_396)"/>
<path fill-rule="evenodd" clip-rule="evenodd" d="M533.103 10.4133L539.188 7.09302L530.753 187.906L525.469 201.718L533.103 10.4133Z" fill="#3A3333"/>
<path fill-rule="evenodd" clip-rule="evenodd" d="M241.933 5.3014L258.571 2.00635L539.188 7.09308L534.488 10.6718L241.933 5.3014Z" fill="#716565"/>
<path fill-rule="evenodd" clip-rule="evenodd" d="M241.933 4.75586L534.488 10.4133L525.728 201.718L240.441 166.648L241.933 4.75586Z" fill="#867676"/>
<path fill-rule="evenodd" clip-rule="evenodd" d="M241.933 4.75586L534.488 10.4133L525.728 201.718L240.441 166.648L241.933 4.75586Z" fill="url(#paint8_linear_303_396)"/>
<path fill-rule="evenodd" clip-rule="evenodd" d="M248.459 11.2725L526.905 16.4421L517.851 191.76L246.706 161.504L248.459 11.2725Z" fill="#B5BFBF"/>
<g filter="url(#filter0_f_303_396)">
<path fill-rule="evenodd" clip-rule="evenodd" d="M248.459 11.2725L526.905 16.4421L517.851 191.76L246.706 161.504L248.459 11.2725Z" fill="white"/>
</g>
<path fill-rule="evenodd" clip-rule="evenodd" d="M372.32 255.021L400.207 260.722C400.207 260.722 389.242 277.483 387.213 286.753C385.139 296.229 373.427 300.632 373.427 300.632L344.182 291.509L372.32 255.021Z" fill="url(#paint9_linear_303_396)"/>
<path fill-rule="evenodd" clip-rule="evenodd" d="M157.642 239.646L344.15 287.921L344.183 291.509L157.615 244.193L157.642 239.646Z" fill="#675B5B"/>
<path fill-rule="evenodd" clip-rule="evenodd" d="M372.32 255.021L373.028 256.736C373.267 257.312 373.725 258.662 373.819 259.278C373.953 260.157 373.711 260.768 373.527 261.365C373.371 261.874 372.218 263.024 371.736 263.249C371.097 263.546 370.855 263.447 370.193 263.636C369.547 263.82 368.897 264.406 368.121 265.248C367.37 266.063 366.638 266.938 366.14 267.471C358.253 275.909 344.182 291.509 344.182 291.509L344.148 287.921L372.32 255.021Z" fill="#4B4242"/>
<path fill-rule="evenodd" clip-rule="evenodd" d="M225.371 219.592L372.32 255.021L344.15 287.921L157.642 239.645L225.371 219.592Z" fill="#414141"/>
<path fill-rule="evenodd" clip-rule="evenodd" d="M225.371 219.592L372.32 255.021L344.15 287.921L157.642 239.645L225.371 219.592Z" fill="url(#paint10_linear_303_396)"/>
<path fill-rule="evenodd" clip-rule="evenodd" d="M172.108 237.116L296.423 267.874L296.416 270.772L172.062 239.159L172.108 237.116Z" fill="#3C3636"/>
<path fill-rule="evenodd" clip-rule="evenodd" d="M301.049 268.734L341.942 279.31L342.027 282.509L301.171 271.939L301.049 268.734Z" fill="#352F2F"/>
<path fill-rule="evenodd" clip-rule="evenodd" d="M296.423 267.874L324.874 244.319L324.576 247.985L296.416 270.772L296.423 267.874Z" fill="#252121"/>
<path fill-rule="evenodd" clip-rule="evenodd" d="M341.942 279.31L365.016 253.836L365.176 257.046L342.027 282.509L341.942 279.31Z" fill="#252121"/>
<path fill-rule="evenodd" clip-rule="evenodd" d="M426.43 270.194L474.202 278.401C474.202 278.401 466.708 292.781 463.949 302.938C461.129 313.321 459.052 321.631 459.052 321.631L406.879 306.431L426.43 270.194Z" fill="url(#paint11_linear_303_396)"/>
<path fill-rule="evenodd" clip-rule="evenodd" d="M422.433 294.3L437.178 274.461L437.833 276.64C437.833 276.64 437.921 278.528 437.843 279.467C437.493 283.623 435.84 291.733 435.84 291.733C435.84 291.733 434.965 297.781 433.723 300.477C433.079 301.875 430.971 304.187 430.971 304.187L422.433 294.3Z" fill="#1E1B1B"/>
<path fill-rule="evenodd" clip-rule="evenodd" d="M414.155 271.101C417.814 269.246 426.431 270.194 426.431 270.194L437.178 274.461C437.178 274.461 429.33 288.227 428.862 295.867C428.687 298.723 430.97 304.187 430.97 304.187C430.97 304.187 414.815 308.29 407.367 306.598C401.395 305.241 394.753 298.242 394.753 298.242C394.753 298.242 398.484 289.368 401.186 285.424C404.825 280.11 409.87 273.273 414.155 271.101Z" fill="#524949"/>
<path fill-rule="evenodd" clip-rule="evenodd" d="M414.155 271.101C417.814 269.246 426.431 270.194 426.431 270.194L437.178 274.461C437.178 274.461 429.33 288.227 428.862 295.867C428.687 298.723 430.97 304.187 430.97 304.187C430.97 304.187 414.815 308.29 407.367 306.598C401.395 305.241 394.753 298.242 394.753 298.242C394.753 298.242 398.484 289.368 401.186 285.424C404.825 280.11 409.87 273.273 414.155 271.101Z" fill="url(#paint12_linear_303_396)"/>
<defs>
<filter id="filter0_f_303_396" x="236.247" y="0.81393" width="301.117" height="201.404" filterUnits="userSpaceOnUse" color-interpolation-filters="sRGB">
<feFlood flood-opacity="0" result="BackgroundImageFix"/>
<feBlend mode="normal" in="SourceGraphic" in2="BackgroundImageFix" result="shape"/>
<feGaussianBlur stdDeviation="5.22927" result="effect1_foregroundBlur_303_396"/>
</filter>
<linearGradient id="paint0_linear_303_396" x1="63.0111" y1="381.245" x2="91.9818" y2="382.147" gradientUnits="userSpaceOnUse">
<stop stop-color="#ADACCA"/>
<stop offset="1" stop-color="#615F95"/>
</linearGradient>
<linearGradient id="paint1_linear_303_396" x1="175.558" y1="183.674" x2="589.863" y2="279.693" gradientUnits="userSpaceOnUse">
<stop stop-color="#DCDCDC"/>
<stop offset="1" stop-color="#2A1E57" stop-opacity="0.670588"/>
</linearGradient>
<linearGradient id="paint2_linear_303_396" x1="493.877" y1="418.232" x2="530.481" y2="425.906" gradientUnits="userSpaceOnUse">
<stop stop-color="#B2B1CD" stop-opacity="0.409574"/>
<stop offset="1" stop-color="#8684B1" stop-opacity="0"/>
</linearGradient>
<linearGradient id="paint3_linear_303_396" x1="272.454" y1="382.621" x2="299.096" y2="398.65" gradientUnits="userSpaceOnUse">
<stop stop-opacity="0.260638"/>
<stop offset="1" stop-opacity="0"/>
</linearGradient>
<linearGradient id="paint4_linear_303_396" x1="262.038" y1="357.105" x2="281.228" y2="360.122" gradientUnits="userSpaceOnUse">
<stop stop-color="#B2B1CD"/>
<stop offset="1" stop-color="#545281" stop-opacity="0"/>
</linearGradient>
<linearGradient id="paint5_linear_303_396" x1="420.17" y1="221.134" x2="465.312" y2="232.423" gradientUnits="userSpaceOnUse">
<stop stop-opacity="0.590426"/>
<stop offset="0.46239" stop-opacity="0.180851"/>
<stop offset="1" stop-opacity="0"/>
</linearGradient>
<linearGradient id="paint6_linear_303_396" x1="267.119" y1="219.004" x2="432.892" y2="219.004" gradientUnits="userSpaceOnUse">
<stop stop-color="#A09393"/>
<stop offset="1" stop-opacity="0.505319"/>
</linearGradient>
<linearGradient id="paint7_linear_303_396" x1="342.24" y1="189.291" x2="395.529" y2="189.291" gradientUnits="userSpaceOnUse">
<stop stop-color="#A09393"/>
<stop offset="1" stop-opacity="0.207447"/>
</linearGradient>
<linearGradient id="paint8_linear_303_396" x1="240.441" y1="83.4244" x2="534.486" y2="103.268" gradientUnits="userSpaceOnUse">
<stop stop-color="#A09393"/>
<stop offset="1" stop-opacity="0.207447"/>
</linearGradient>
<linearGradient id="paint9_linear_303_396" x1="358.637" y1="261.039" x2="384.448" y2="278.722" gradientUnits="userSpaceOnUse">
<stop stop-opacity="0.590426"/>
<stop offset="0.46239" stop-opacity="0.180851"/>
<stop offset="1" stop-opacity="0"/>
</linearGradient>
<linearGradient id="paint10_linear_303_396" x1="192.226" y1="224.006" x2="373.838" y2="273.337" gradientUnits="userSpaceOnUse">
<stop stop-color="#A09393"/>
<stop offset="1" stop-opacity="0.207447"/>
</linearGradient>
<linearGradient id="paint11_linear_303_396" x1="413.709" y1="280.914" x2="458.85" y2="292.203" gradientUnits="userSpaceOnUse">
<stop stop-opacity="0.590426"/>
<stop offset="0.46239" stop-opacity="0.180851"/>
<stop offset="1" stop-opacity="0"/>
</linearGradient>
<linearGradient id="paint12_linear_303_396" x1="402.854" y1="278.517" x2="430.148" y2="289.339" gradientUnits="userSpaceOnUse">
<stop stop-color="#A09393"/>
<stop offset="1" stop-opacity="0.361702"/>
</linearGradient>
</defs>
</svg>
