<svg width="74" height="78" viewBox="0 0 74 78" fill="none" xmlns="http://www.w3.org/2000/svg">
<path fill-rule="evenodd" clip-rule="evenodd" d="M47.2595 43.3276L73.797 47.9846C73.797 47.9846 73.9562 52.5584 71.9419 62.8884C69.8825 73.4486 68.2524 77.5283 68.2524 77.5283L13.3599 63.9129L47.2595 43.3276Z" fill="url(#paint0_linear_303_423)"/>
<path fill-rule="evenodd" clip-rule="evenodd" d="M3.21191 7.93103C3.21191 7.93103 6.86331 4.1169 10.4364 3.06469C15.5487 1.55924 20.1415 0.684019 25.4674 0.525669C30.5652 0.373908 33.3646 1.16741 36.2246 1.89629C39.0872 2.62571 43.7038 4.38491 46.1358 6.06117C49.4268 8.32936 53.6978 14.4321 53.6978 14.4321L48.1398 28.5652L4.05618 22.5336L3.21191 7.93103Z" fill="#D7ECE4"/>
<path fill-rule="evenodd" clip-rule="evenodd" d="M3.21191 7.93103C3.21191 7.93103 6.86331 4.1169 10.4364 3.06469C15.5487 1.55924 20.1415 0.684019 25.4674 0.525669C30.5652 0.373908 33.3646 1.16741 36.2246 1.89629C39.0872 2.62571 43.7038 4.38491 46.1358 6.06117C49.4268 8.32936 53.6978 14.4321 53.6978 14.4321L48.1398 28.5652L4.05618 22.5336L3.21191 7.93103Z" fill="url(#paint1_linear_303_423)"/>
<path fill-rule="evenodd" clip-rule="evenodd" d="M46.0188 51.2564C45.693 50.8292 45.6897 50.3294 46.0088 48.9486C46.3685 47.3786 46.9881 46.1601 48.0616 44.9118C49.4345 43.3153 49.763 42.418 50.3699 38.606C50.5444 37.5094 50.8586 35.7313 51.0679 34.6547C51.5947 31.944 51.5634 30.8522 50.9306 29.8748C50.5328 29.2601 50.4379 28.9418 50.4303 28.198C50.417 26.6149 51.419 23.6205 52.192 22.9477C52.5167 22.6651 53.5671 22.5296 55.8274 22.48C57.2169 22.4534 58.1444 22.8533 58.9699 23.8471C60.401 25.5704 60.5341 27.9201 59.4566 32.4392C59.1042 33.917 58.5703 36.6446 58.2702 38.5005C57.179 45.2481 56.363 47.3888 54.222 49.1205C52.7806 50.2865 49.1673 51.5535 47.2065 51.5805C46.432 51.5905 46.236 51.5379 46.0214 51.257L46.0188 51.2564Z" fill="#104130"/>
<path fill-rule="evenodd" clip-rule="evenodd" d="M3.21187 7.93115C3.21187 7.93115 7.14481 15.2692 12.9538 18.8027C16.7177 21.0922 22.2718 22.6173 25.5328 23.2335C29.224 23.9309 33.0921 22.9815 38.4137 22.2922C45.5726 21.3649 53.6978 14.4322 53.6978 14.4322L44.3688 61.8596C44.3688 61.8596 39.035 64.5215 32.8299 65.479C27.9102 66.2381 22.3069 66.3644 19.3403 65.6883C16.5848 65.0602 11.8048 63.5738 7.97862 61.072C3.88721 58.3968 0.833984 53.8039 0.833984 53.8039L3.21187 7.93115Z" fill="#95DFC5"/>
<path fill-rule="evenodd" clip-rule="evenodd" d="M3.21187 7.93115C3.21187 7.93115 7.14481 15.2692 12.9538 18.8027C16.7177 21.0922 22.2718 22.6173 25.5328 23.2335C29.224 23.9309 33.0921 22.9815 38.4137 22.2922C45.5726 21.3649 53.6978 14.4322 53.6978 14.4322L44.3688 61.8596C44.3688 61.8596 39.035 64.5215 32.8299 65.479C27.9102 66.2381 22.3069 66.3644 19.3403 65.6883C16.5848 65.0602 11.8048 63.5738 7.97862 61.072C3.88721 58.3968 0.833984 53.8039 0.833984 53.8039L3.21187 7.93115Z" fill="url(#paint2_linear_303_423)"/>
<defs>
<linearGradient id="paint0_linear_303_423" x1="33.5825" y1="44.3208" x2="71.4669" y2="56.764" gradientUnits="userSpaceOnUse">
<stop stop-opacity="0.590426"/>
<stop offset="0.46239" stop-opacity="0.180851"/>
<stop offset="1" stop-opacity="0"/>
</linearGradient>
<linearGradient id="paint1_linear_303_423" x1="8.68424" y1="3.62006" x2="69.9926" y2="21.0262" gradientUnits="userSpaceOnUse">
<stop stop-color="#6C7772"/>
<stop offset="1" stop-color="#E2F1EB" stop-opacity="0.728723"/>
</linearGradient>
<linearGradient id="paint2_linear_303_423" x1="0.834018" y1="37.0302" x2="45.7698" y2="44.5134" gradientUnits="userSpaceOnUse">
<stop stop-color="#71D5B2"/>
<stop offset="1" stop-color="#0D4A35"/>
</linearGradient>
</defs>
</svg>
