<svg width="83" height="61" viewBox="0 0 83 61" fill="none" xmlns="http://www.w3.org/2000/svg">
<path fill-rule="evenodd" clip-rule="evenodd" d="M66.6503 0.456851C62.2331 0.570439 58.5502 3.41159 54.5985 5.03568C50.065 7.1564 44.9694 7.43972 40.0781 8.40434C34.3966 9.44776 28.1725 9.76814 23.3292 13.2659C19.7464 15.8668 19.06 20.9555 20.6043 24.888C21.9176 28.2682 24.1265 31.6137 27.4439 33.2741C30.3062 34.2133 33.3941 33.2041 36.0196 31.9936C39.3471 30.4327 42.9426 29.9499 46.5656 30.3327C53.3404 30.7717 59.9674 32.4875 66.6521 33.6277C69.5674 34.107 72.481 34.9234 75.3761 35.3161C76.3361 32.1342 76.6846 28.577 79.0227 25.9971C80.0784 24.6065 81.5918 23.5476 82.5404 22.1265C81.3628 16.1691 79.2238 10.2999 75.7682 5.27883C73.6482 2.40003 70.2966 0.361072 66.6503 0.456851V0.456851Z" fill="url(#paint0_linear_303_345)"/>
<path fill-rule="evenodd" clip-rule="evenodd" d="M57.7724 22.6918C52.4208 22.8457 47.052 23.2439 41.8391 24.0245C39.3979 24.4616 36.5321 25.4436 36.5004 27.2574C36.3152 28.6118 37.0897 29.9969 36.7282 31.3234C35.3099 32.4032 32.7321 32.0185 30.7865 32.1274C25.7463 32.2088 20.0522 32.5933 16.3405 34.9715C12.4702 37.7309 12.871 41.9078 15.3389 45.0282C16.4978 46.7239 19.1532 47.725 21.9023 48.1715C29.6671 49.458 37.7702 49.5781 45.7489 49.8338C52.0783 49.8574 58.4769 50.0243 64.7464 49.3817C69.0094 48.8954 73.9441 47.9553 75.9556 45.3044C78.0027 42.3981 76.5282 39.1385 75.449 36.2028C73.8382 32.6573 72.0903 29.0141 68.6439 25.9769C66.3562 24.0472 62.7733 22.5131 58.7923 22.6873C58.4524 22.6849 58.1126 22.6898 57.7728 22.6916L57.7724 22.6918Z" fill="url(#paint1_linear_303_345)"/>
<path fill-rule="evenodd" clip-rule="evenodd" d="M26.2461 37.5864C20.8754 37.7465 16.655 41.6143 12.7059 44.8126C8.10725 48.6902 3.93538 53.0596 0.243553 57.8014C-0.58193 58.6015 0.926739 59.151 1.55295 59.2237C7.09664 60.6974 12.8667 59.6634 18.506 59.6295C23.9606 59.2319 29.6543 59.5087 34.8439 57.5246C38.499 56.1631 41.5806 52.655 41.2989 48.5817C41.1744 44.873 37.9986 42.1936 35.1201 40.324C32.4495 38.7409 29.3845 37.5818 26.2461 37.5864V37.5864Z" fill="url(#paint2_linear_303_345)"/>
<defs>
<linearGradient id="paint0_linear_303_345" x1="19.8281" y1="17.8849" x2="82.5405" y2="17.8849" gradientUnits="userSpaceOnUse">
<stop stop-color="#D4DBD9"/>
<stop offset="1" stop-color="#A9B8B3"/>
</linearGradient>
<linearGradient id="paint1_linear_303_345" x1="13.4572" y1="36.2722" x2="76.9799" y2="36.2722" gradientUnits="userSpaceOnUse">
<stop stop-color="#E8EBEA"/>
<stop offset="1" stop-color="#C2CAC8"/>
</linearGradient>
<linearGradient id="paint2_linear_303_345" x1="0.00241374" y1="48.8" x2="41.3169" y2="48.8" gradientUnits="userSpaceOnUse">
<stop stop-color="#F6F8F7"/>
<stop offset="1" stop-color="#DEE5E0"/>
</linearGradient>
</defs>
</svg>
