<svg width="115" height="33" viewBox="0 0 115 33" fill="none" xmlns="http://www.w3.org/2000/svg">
<path fill-rule="evenodd" clip-rule="evenodd" d="M63.6019 0.0761977C50.7904 0.233271 38.0797 2.26732 25.4954 4.50778C16.8385 6.35454 8.32596 10.2174 2.14453 16.6695C0.244055 18.4627 0.43195 21.6051 2.56396 23.1316C7.1739 26.828 12.8 29.1181 18.3753 30.942C25.5921 33.0165 33.2325 31.7417 40.5383 30.8437C48.8663 29.2374 57.3388 28.7657 65.7341 27.6924C74.915 25.9375 82.8793 20.6762 91.3604 17.0262C98.9396 13.2353 107.062 10.4776 114.361 6.16629C114.91 5.30081 112.843 5.74278 112.484 5.61036C97.9499 5.33817 83.9652 0.135299 69.3907 0.1078C67.4615 0.0629794 65.5315 0.0636938 63.6019 0.0761977Z" fill="url(#paint0_linear_303_225)"/>
<defs>
<linearGradient id="paint0_linear_303_225" x1="15.0063" y1="22.4496" x2="112.48" y2="5.58453" gradientUnits="userSpaceOnUse">
<stop stop-color="#4A7C5A"/>
<stop offset="1" stop-color="#81B492"/>
</linearGradient>
</defs>
</svg>
