<svg width="63" height="97" viewBox="0 0 63 97" fill="none" xmlns="http://www.w3.org/2000/svg">
<path fill-rule="evenodd" clip-rule="evenodd" d="M0.579641 96.2849C0.585637 96.0427 0.778819 94.7409 1.00932 93.3928C1.79957 88.7703 2.70557 79.3736 3.39294 68.6708C4.62961 49.415 7.15356 40.5738 14.0154 31.4608C19.599 24.0454 26.8924 18.5457 41.9327 10.4092C47.3208 7.49422 53.3844 4.02851 55.4072 2.70753C57.4301 1.38654 59.4484 0.305664 59.8924 0.305664C61.1896 0.305664 61.9464 3.80483 62.4073 11.9336C63.1785 25.5363 61.7035 44.0413 59.0538 54.0052C55.9409 65.7115 50.8011 74.6906 42.3666 83.1575C34.1082 91.4476 28.7647 93.6847 12.1073 95.8262C4.46204 96.809 0.563238 96.9642 0.579641 96.2849Z" fill="url(#paint0_linear_303_232)"/>
<defs>
<linearGradient id="paint0_linear_303_232" x1="4.03319" y1="91.2098" x2="55.0606" y2="2.63961" gradientUnits="userSpaceOnUse">
<stop stop-color="#51B026"/>
<stop offset="1" stop-color="#ABE790"/>
</linearGradient>
</defs>
</svg>
