<svg width="98" height="72" viewBox="0 0 98 72" fill="none" xmlns="http://www.w3.org/2000/svg">
<path fill-rule="evenodd" clip-rule="evenodd" d="M96.8504 0.0589304C95.0957 1.44435 94.074 3.70594 92.2274 5.08526C84.8263 12.6678 73.8371 14.2441 63.9013 16.0817C49.9123 18.7243 35.167 21.569 23.6314 30.4693C15.6873 37.0609 8.13714 44.3026 2.02015 52.644C-0.52132 56.0409 0.425031 61.0676 3.64213 63.6948C10.0149 69.4473 18.9495 71.4566 27.3252 71.7554C37.3726 72.2786 48.0688 70.2492 55.9407 63.6298C63.4239 56.7125 67.4738 47.0162 74.2972 39.5195C83.0683 29.7984 91.6378 19.3629 95.8436 6.76661C96.3692 4.64321 97.5948 2.27919 97.0361 0.105312C96.9831 0.0661275 96.9155 0.050301 96.8504 0.0589304Z" fill="url(#paint0_linear_303_226)"/>
<defs>
<linearGradient id="paint0_linear_303_226" x1="37.6634" y1="60.0463" x2="79.957" y2="12.1371" gradientUnits="userSpaceOnUse">
<stop stop-color="#3E684C"/>
<stop offset="1" stop-color="#88B898"/>
</linearGradient>
</defs>
</svg>
