<svg width="97" height="67" viewBox="0 0 97 67" fill="none" xmlns="http://www.w3.org/2000/svg">
<path fill-rule="evenodd" clip-rule="evenodd" d="M9.73354 65.9505C8.03698 65.505 6.78735 64.3656 7.05927 63.5123C7.40623 62.4233 8.72997 60.6739 12.2163 56.697C15.8052 52.6032 17.1316 50.8847 18.1156 49.0542C20.8665 43.9362 17.5989 40.8933 6.41371 38.1571C2.80725 37.2749 1.42722 36.8048 0.996394 36.3118C0.138067 35.3295 0.289191 34.6406 1.51725 33.9372C3.01099 33.0817 7.56035 28.3311 11.5941 23.4147C13.426 21.182 15.6341 18.7403 16.5011 17.9888C19.0029 15.8201 20.2099 15.5412 32.437 14.3062C60.5149 11.4701 73.0663 8.91462 85.4804 3.50655C94.6033 -0.467751 96.7599 -0.549952 95.9314 3.10831C95.0293 7.09173 89.7375 19.1173 86.4623 24.6269C78.0897 38.7113 68.4133 47.0167 51.3572 54.758C41.5789 59.1961 33.7969 61.8125 22.411 64.4902C15.4913 66.1175 11.9311 66.5276 9.73354 65.9505Z" fill="url(#paint0_linear_303_233)"/>
<defs>
<linearGradient id="paint0_linear_303_233" x1="1.11504" y1="60.1727" x2="96.0565" y2="4.85724" gradientUnits="userSpaceOnUse">
<stop stop-color="#43A644"/>
<stop offset="1" stop-color="#77C978"/>
</linearGradient>
</defs>
</svg>
