<svg width="179" height="78" viewBox="0 0 179 78" fill="none" xmlns="http://www.w3.org/2000/svg">
<path fill-rule="evenodd" clip-rule="evenodd" d="M96.9518 45.6955C95.1192 45.0637 92.9293 44.0833 91.3275 43.1773L90.332 42.6143L90.7671 39.4269C91.2785 35.6811 93.1284 27.7393 94.1861 24.7492C97.1593 16.3441 100.806 11.1462 106.342 7.42066C116.331 0.698633 130.351 -1.31972 148.679 1.32564C150.182 1.54263 152.69 1.83488 154.25 1.97459C157.845 2.29675 158.823 2.48572 160.184 3.12075C161.552 3.76048 162.159 4.38564 161.974 4.96502C161.898 5.20098 160.773 6.5439 159.474 7.94875C158.174 9.35357 155.507 12.3474 153.548 14.6017C151.588 16.856 149.102 19.6322 148.024 20.7709C140.531 28.6801 133.57 33.1479 120.985 38.127C115.24 40.3995 113.498 41.2804 109.092 44.1383C106.502 45.8191 105.275 46.4894 104.28 46.7672C103.011 47.1219 102.838 47.119 100.801 46.7113C99.622 46.4763 97.8901 46.0178 96.952 45.6943L96.9518 45.6955Z" fill="url(#paint0_linear_303_224)"/>
<path fill-rule="evenodd" clip-rule="evenodd" d="M101.912 59.5535C95.6913 56.2509 92.755 53.2541 92.1121 49.5513C91.6749 47.0332 92.0412 45.2003 93.4109 43.0527C97.0647 37.3235 102.838 32.4718 108.569 30.3135C113.25 28.5508 120.191 27.8017 126.782 28.3478C128.03 28.451 131.686 28.868 134.906 29.2741C153.96 31.677 162.641 31.7357 173.03 29.532C175.052 29.1031 177.058 28.7439 177.489 28.7339C178.631 28.7073 178.625 29.0008 177.447 30.7351C173.635 36.3501 162.949 46.6212 155.329 51.9958C141.063 62.0582 126.981 65.8693 113.219 63.3925C110.703 62.9399 104.01 60.6673 101.912 59.5535L101.912 59.5535Z" fill="url(#paint1_linear_303_224)"/>
<path fill-rule="evenodd" clip-rule="evenodd" d="M76.0856 50.8847C68.9626 52.8574 62.5873 53.6079 56.9063 53.1423C45.6108 52.2167 35.8338 46.4263 23.2378 33.2025C22.3175 32.2363 19.4775 29.5297 16.9269 27.1878C12.6418 23.2536 12.0976 22.8041 9.76849 21.274C3.6693 17.2673 2.66175 16.58 1.67386 15.7523C1.09818 15.2699 0.57757 14.7399 0.516912 14.5744C0.310141 14.0104 1.69924 13.77 9.8846 12.9532C24.8186 11.463 37.1642 10.7544 50.3335 10.6318C68.0612 10.4667 80.5207 11.8023 88.6901 14.7433C93.056 16.3151 95.9693 18.0713 99.7754 21.4256C104.767 25.825 107.103 29.3726 106.158 31.122C105.729 31.916 104.873 32.4423 101.139 34.2049C94.9472 37.1282 92.738 38.7474 89.3178 42.8693C86.9593 45.7116 85.1707 47.3598 83.6015 48.1366C81.9236 48.9674 78.5357 50.2061 76.0855 50.8846L76.0856 50.8847Z" fill="url(#paint2_linear_303_224)"/>
<path fill-rule="evenodd" clip-rule="evenodd" d="M56.6196 77.4428C56.5721 77.3506 56.4263 76.6518 56.2956 75.8902C56.0265 74.3218 55.7646 73.4933 54.2143 69.3075C52.7099 65.2453 52.4765 64.5349 52.0333 62.6668C51.4314 60.1295 51.349 58.0425 51.7544 55.6029C51.9719 54.2941 53.599 50.5008 54.4284 49.3688C57.9002 44.6308 62.7209 40.9006 67.8677 38.9696C75.2231 36.21 84.2522 37.6258 92.7282 42.8679C95.7217 44.7192 100.318 48.3358 101.126 49.4761C101.84 50.4839 101.924 51.0973 101.604 52.9478C100.758 57.8203 98.6678 63.6779 96.6643 66.7869C92.616 73.0689 86.7651 75.8301 75.0694 76.9785C71.1936 77.359 63.962 77.8965 62.1403 77.9395C58.9455 78.0147 56.8155 77.8234 56.6196 77.4428V77.4428Z" fill="url(#paint3_linear_303_224)"/>
<defs>
<linearGradient id="paint0_linear_303_224" x1="101.782" y1="37.589" x2="140.606" y2="0.170584" gradientUnits="userSpaceOnUse">
<stop stop-color="#336B3C"/>
<stop offset="1" stop-color="#62B570"/>
</linearGradient>
<linearGradient id="paint1_linear_303_224" x1="97.5555" y1="52.3089" x2="178.328" y2="28.1374" gradientUnits="userSpaceOnUse">
<stop stop-color="#153C2A"/>
<stop offset="1" stop-color="#349469"/>
</linearGradient>
<linearGradient id="paint2_linear_303_224" x1="82.088" y1="42.3893" x2="53.1314" y2="-5.29552" gradientUnits="userSpaceOnUse">
<stop stop-color="#377441"/>
<stop offset="1" stop-color="#62B570"/>
</linearGradient>
<linearGradient id="paint3_linear_303_224" x1="96.952" y1="45.6943" x2="56.644" y2="77.4737" gradientUnits="userSpaceOnUse">
<stop stop-color="#133424"/>
<stop offset="1" stop-color="#2F865F"/>
</linearGradient>
</defs>
</svg>
