<svg width="60" height="145" viewBox="0 0 60 145" fill="none" xmlns="http://www.w3.org/2000/svg">
<path fill-rule="evenodd" clip-rule="evenodd" d="M15.7732 0.847168C17.3196 10.7785 12.1928 19.9768 8.71489 28.9257C2.72665 42.9726 -0.205148 58.4536 1.36149 73.7014C3.24069 88.2344 9.44346 101.771 15.8929 114.779C18.8207 120.819 22.4528 126.512 27.133 131.356C30.9409 135.282 33.9391 139.969 37.9765 143.658C41.1382 145.482 44.8013 143.11 46.6487 140.471C55.991 128.688 59.4267 113.271 59.447 98.4917C59.994 78.7993 57.9851 58.4045 48.9118 40.6139C42.5166 28.1862 35.0445 15.9748 24.7569 6.36327C22.1214 4.07018 19.1142 1.7171 15.7732 0.847168Z" fill="url(#paint0_linear_303_229)"/>
<defs>
<linearGradient id="paint0_linear_303_229" x1="39.2787" y1="23.703" x2="26.0628" y2="111.321" gradientUnits="userSpaceOnUse">
<stop stop-color="#BFF595"/>
<stop offset="1" stop-color="#1F8F32" stop-opacity="0.996078"/>
</linearGradient>
</defs>
</svg>
