<svg width="109" height="47" viewBox="0 0 109 47" fill="none" xmlns="http://www.w3.org/2000/svg">
<path fill-rule="evenodd" clip-rule="evenodd" d="M25.0046 45.9319C18.5339 44.6722 12.4092 42.4741 8.89399 40.15C5.93358 38.1927 2.45027 34.4403 1.3616 32.0357C-0.445556 28.0443 0.296483 27.3835 8.71703 25.4861C24.8414 21.8529 37.4229 15.9017 50.7839 5.5879C57.6169 0.313252 59.1623 -0.389733 62.7191 0.158535C68.4447 1.04111 80.7918 5.17154 87.2057 8.34996C94.6365 12.0322 100.677 17.178 105.328 23.7882C109.798 30.1405 110.117 33.2742 106.45 34.7894C104.207 35.7162 67.1691 43.5553 59.5583 44.7142C48.5704 46.3872 41.3153 46.8749 33.1269 46.4909C29.3224 46.3125 25.6674 46.0612 25.0046 45.9319Z" fill="url(#paint0_linear_303_228)"/>
<defs>
<linearGradient id="paint0_linear_303_228" x1="0.555665" y1="29.4729" x2="108.964" y2="23.2993" gradientUnits="userSpaceOnUse">
<stop stop-color="#102E20"/>
<stop offset="1" stop-color="#287351"/>
</linearGradient>
</defs>
</svg>
