<svg width="594" height="475" viewBox="0 0 594 475" fill="none" xmlns="http://www.w3.org/2000/svg">
<path fill-rule="evenodd" clip-rule="evenodd" d="M66.2007 256.48L115.825 267.215L98.6373 469.989L74.6019 471.268L66.2007 256.48Z" fill="url(#paint0_linear_303_238)"/>
<path fill-rule="evenodd" clip-rule="evenodd" d="M286.464 158.437L593.519 210.525L582.461 367.545L0.75 250.937L286.464 158.437Z" fill="#FEFEFE"/>
<path fill-rule="evenodd" clip-rule="evenodd" d="M286.464 158.437L593.519 210.525L582.461 367.545L0.75 250.937L286.464 158.437Z" fill="url(#paint1_linear_303_238)"/>
<path fill-rule="evenodd" clip-rule="evenodd" d="M489.592 357.53L541.44 369.34L522.126 477.147L487.707 473.44L489.592 357.53Z" fill="#636097"/>
<path fill-rule="evenodd" clip-rule="evenodd" d="M489.592 357.53L541.44 369.34L522.126 477.147L487.707 473.44L489.592 357.53Z" fill="url(#paint2_linear_303_238)"/>
<path fill-rule="evenodd" clip-rule="evenodd" d="M264.842 386.639L282.553 380.621L333.124 397.35L297.836 408.26L264.842 386.639Z" fill="url(#paint3_linear_303_238)"/>
<path fill-rule="evenodd" clip-rule="evenodd" d="M268.456 320.972L288.035 325.326L281.892 387.335C281.892 387.335 280.615 388.396 277.72 389.011C275.543 389.473 272.69 389.134 271.007 388.827C268.226 388.321 266.781 387.893 265.61 387.202C263.282 385.827 262.038 383.993 262.038 383.993L268.456 320.972Z" fill="#7370A5"/>
<path fill-rule="evenodd" clip-rule="evenodd" d="M268.456 320.972L288.035 325.326L281.892 387.335C281.892 387.335 280.615 388.396 277.72 389.011C275.543 389.473 272.69 389.134 271.007 388.827C268.226 388.321 266.781 387.893 265.61 387.202C263.282 385.827 262.038 383.993 262.038 383.993L268.456 320.972Z" fill="url(#paint4_linear_303_238)"/>
<path fill-rule="evenodd" clip-rule="evenodd" d="M0.75 250.937L582.461 367.545L582.053 385.613L0.791439 269.324L0.75 250.937Z" fill="#9695BB"/>
<path fill-rule="evenodd" clip-rule="evenodd" d="M593.519 210.525L582.053 385.613L582.461 367.545L593.519 210.525Z" fill="#67629D"/>
<path fill-rule="evenodd" clip-rule="evenodd" d="M432.892 208.414L480.664 216.621C480.664 216.621 473.169 231.001 470.411 241.158C467.591 251.541 465.513 259.851 465.513 259.851L425.795 249.754L432.892 208.414Z" fill="url(#paint5_linear_303_238)"/>
<path fill-rule="evenodd" clip-rule="evenodd" d="M322.958 189.04L432.892 208.414L425.575 244.969L267.119 212.465L322.958 189.04Z" fill="#524949"/>
<path fill-rule="evenodd" clip-rule="evenodd" d="M322.958 189.04L432.892 208.414L425.575 244.969L267.119 212.465L322.958 189.04Z" fill="url(#paint6_linear_303_238)"/>
<path fill-rule="evenodd" clip-rule="evenodd" d="M432.892 208.414L432.62 213.603L425.795 250.271L425.575 244.969L432.892 208.414Z" fill="#494141"/>
<path fill-rule="evenodd" clip-rule="evenodd" d="M267.119 211.948L425.575 244.452L425.795 249.754L267.109 218.044L267.119 211.948Z" fill="#675B5B"/>
<path fill-rule="evenodd" clip-rule="evenodd" d="M346.637 165.449L395.529 170.618L391.132 209.132L342.24 200.861L346.637 165.449Z" fill="#675B5B"/>
<path fill-rule="evenodd" clip-rule="evenodd" d="M346.637 165.449L395.529 170.618L391.132 209.132L342.24 200.861L346.637 165.449Z" fill="url(#paint7_linear_303_238)"/>
<path fill-rule="evenodd" clip-rule="evenodd" d="M533.103 8.41326L539.188 5.09302L530.753 185.906L525.469 199.718L533.103 8.41326Z" fill="#3A3333"/>
<path fill-rule="evenodd" clip-rule="evenodd" d="M241.933 3.3014L258.571 0.00634766L539.188 5.09308L534.488 8.6718L241.933 3.3014Z" fill="#716565"/>
<path fill-rule="evenodd" clip-rule="evenodd" d="M241.933 2.75586L534.488 8.41334L525.728 199.718L240.441 164.648L241.933 2.75586Z" fill="#867676"/>
<path fill-rule="evenodd" clip-rule="evenodd" d="M241.933 2.75586L534.488 8.41334L525.728 199.718L240.441 164.648L241.933 2.75586Z" fill="url(#paint8_linear_303_238)"/>
<path fill-rule="evenodd" clip-rule="evenodd" d="M248.459 9.27246L526.905 14.4421L517.851 189.76L246.706 159.504L248.459 9.27246Z" fill="#B5BFBF"/>
<path fill-rule="evenodd" clip-rule="evenodd" d="M248.459 9.27246L526.905 14.4421L517.851 189.76L246.706 159.504L248.459 9.27246Z" fill="url(#paint9_linear_303_238)"/>
<path fill-rule="evenodd" clip-rule="evenodd" d="M372.32 253.021L400.207 258.722C400.207 258.722 389.242 275.483 387.213 284.752C385.139 294.229 373.427 298.631 373.427 298.631L344.182 289.509L372.32 253.021Z" fill="url(#paint10_linear_303_238)"/>
<path fill-rule="evenodd" clip-rule="evenodd" d="M157.642 237.646L344.15 285.921L344.183 289.509L157.615 242.193L157.642 237.646Z" fill="#675B5B"/>
<path fill-rule="evenodd" clip-rule="evenodd" d="M372.32 253.021L373.028 254.736C373.267 255.312 373.725 256.662 373.819 257.278C373.953 258.157 373.711 258.768 373.527 259.365C373.371 259.874 372.218 261.023 371.736 261.248C371.097 261.545 370.855 261.447 370.193 261.635C369.547 261.819 368.897 262.406 368.121 263.248C367.37 264.062 366.638 264.938 366.14 265.471C358.253 273.909 344.182 289.509 344.182 289.509L344.148 285.921L372.32 253.021Z" fill="#4B4242"/>
<path fill-rule="evenodd" clip-rule="evenodd" d="M225.371 217.592L372.32 253.021L344.15 285.921L157.642 237.645L225.371 217.592Z" fill="#414141"/>
<path fill-rule="evenodd" clip-rule="evenodd" d="M225.371 217.592L372.32 253.021L344.15 285.921L157.642 237.645L225.371 217.592Z" fill="url(#paint11_linear_303_238)"/>
<path fill-rule="evenodd" clip-rule="evenodd" d="M172.108 235.116L296.423 265.874L296.416 268.772L172.062 237.159L172.108 235.116Z" fill="#3C3636"/>
<path fill-rule="evenodd" clip-rule="evenodd" d="M301.049 266.734L341.942 277.31L342.027 280.509L301.171 269.938L301.049 266.734Z" fill="#352F2F"/>
<path fill-rule="evenodd" clip-rule="evenodd" d="M296.423 265.874L324.874 242.319L324.576 245.986L296.416 268.772L296.423 265.874Z" fill="#252121"/>
<path fill-rule="evenodd" clip-rule="evenodd" d="M341.942 277.31L365.016 251.835L365.176 255.045L342.027 280.509L341.942 277.31Z" fill="#252121"/>
<path fill-rule="evenodd" clip-rule="evenodd" d="M426.43 268.194L474.202 276.401C474.202 276.401 466.708 290.781 463.949 300.938C461.129 311.321 459.052 319.631 459.052 319.631L406.879 304.431L426.43 268.194Z" fill="url(#paint12_linear_303_238)"/>
<path fill-rule="evenodd" clip-rule="evenodd" d="M422.433 292.3L437.178 272.461L437.833 274.64C437.833 274.64 437.921 276.528 437.843 277.467C437.493 281.623 435.84 289.733 435.84 289.733C435.84 289.733 434.965 295.781 433.723 298.477C433.079 299.875 430.971 302.187 430.971 302.187L422.433 292.3Z" fill="#1E1B1B"/>
<path fill-rule="evenodd" clip-rule="evenodd" d="M414.155 269.101C417.814 267.246 426.431 268.194 426.431 268.194L437.178 272.461C437.178 272.461 429.33 286.227 428.862 293.867C428.687 296.723 430.97 302.187 430.97 302.187C430.97 302.187 414.815 306.29 407.367 304.598C401.395 303.241 394.753 296.242 394.753 296.242C394.753 296.242 398.484 287.368 401.186 283.424C404.825 278.11 409.87 271.273 414.155 269.101Z" fill="#524949"/>
<path fill-rule="evenodd" clip-rule="evenodd" d="M414.155 269.101C417.814 267.246 426.431 268.194 426.431 268.194L437.178 272.461C437.178 272.461 429.33 286.227 428.862 293.867C428.687 296.723 430.97 302.187 430.97 302.187C430.97 302.187 414.815 306.29 407.367 304.598C401.395 303.241 394.753 296.242 394.753 296.242C394.753 296.242 398.484 287.368 401.186 283.424C404.825 278.11 409.87 271.273 414.155 269.101Z" fill="url(#paint13_linear_303_238)"/>
<defs>
<linearGradient id="paint0_linear_303_238" x1="63.0111" y1="379.244" x2="94.3903" y2="383.624" gradientUnits="userSpaceOnUse">
<stop stop-color="#BCBBD4"/>
<stop offset="1" stop-color="#67659D"/>
</linearGradient>
<linearGradient id="paint1_linear_303_238" x1="175.558" y1="181.674" x2="589.863" y2="277.693" gradientUnits="userSpaceOnUse">
<stop stop-color="white"/>
<stop offset="1" stop-color="#8E81A1" stop-opacity="0.670588"/>
</linearGradient>
<linearGradient id="paint2_linear_303_238" x1="493.877" y1="416.232" x2="530.481" y2="423.905" gradientUnits="userSpaceOnUse">
<stop stop-color="#B2B1CD" stop-opacity="0.409574"/>
<stop offset="1" stop-color="#8684B1" stop-opacity="0"/>
</linearGradient>
<linearGradient id="paint3_linear_303_238" x1="272.454" y1="380.621" x2="299.096" y2="396.649" gradientUnits="userSpaceOnUse">
<stop stop-opacity="0.260638"/>
<stop offset="1" stop-opacity="0"/>
</linearGradient>
<linearGradient id="paint4_linear_303_238" x1="262.038" y1="355.104" x2="281.228" y2="358.122" gradientUnits="userSpaceOnUse">
<stop stop-color="#B2B1CD"/>
<stop offset="1" stop-color="#545281" stop-opacity="0"/>
</linearGradient>
<linearGradient id="paint5_linear_303_238" x1="420.17" y1="219.134" x2="465.312" y2="230.423" gradientUnits="userSpaceOnUse">
<stop stop-opacity="0.590426"/>
<stop offset="0.46239" stop-opacity="0.180851"/>
<stop offset="1" stop-opacity="0"/>
</linearGradient>
<linearGradient id="paint6_linear_303_238" x1="267.119" y1="217.005" x2="432.892" y2="217.005" gradientUnits="userSpaceOnUse">
<stop stop-color="#A09393"/>
<stop offset="1" stop-opacity="0.505319"/>
</linearGradient>
<linearGradient id="paint7_linear_303_238" x1="342.24" y1="187.291" x2="395.529" y2="187.291" gradientUnits="userSpaceOnUse">
<stop stop-color="#A09393"/>
<stop offset="1" stop-opacity="0.207447"/>
</linearGradient>
<linearGradient id="paint8_linear_303_238" x1="240.441" y1="81.4244" x2="534.486" y2="101.268" gradientUnits="userSpaceOnUse">
<stop stop-color="#A09393"/>
<stop offset="1" stop-opacity="0.207447"/>
</linearGradient>
<linearGradient id="paint9_linear_303_238" x1="246.706" y1="72.1196" x2="446.787" y2="119.678" gradientUnits="userSpaceOnUse">
<stop stop-color="#F9FAFA"/>
<stop offset="1" stop-color="#A9B5B5" stop-opacity="0"/>
</linearGradient>
<linearGradient id="paint10_linear_303_238" x1="358.637" y1="259.039" x2="384.448" y2="276.722" gradientUnits="userSpaceOnUse">
<stop stop-opacity="0.590426"/>
<stop offset="0.46239" stop-opacity="0.180851"/>
<stop offset="1" stop-opacity="0"/>
</linearGradient>
<linearGradient id="paint11_linear_303_238" x1="192.226" y1="222.006" x2="373.838" y2="271.337" gradientUnits="userSpaceOnUse">
<stop stop-color="#A09393"/>
<stop offset="1" stop-opacity="0.207447"/>
</linearGradient>
<linearGradient id="paint12_linear_303_238" x1="413.709" y1="278.914" x2="458.85" y2="290.203" gradientUnits="userSpaceOnUse">
<stop stop-opacity="0.590426"/>
<stop offset="0.46239" stop-opacity="0.180851"/>
<stop offset="1" stop-opacity="0"/>
</linearGradient>
<linearGradient id="paint13_linear_303_238" x1="402.854" y1="276.517" x2="430.148" y2="287.339" gradientUnits="userSpaceOnUse">
<stop stop-color="#A09393"/>
<stop offset="1" stop-opacity="0.361702"/>
</linearGradient>
</defs>
</svg>
