<?xml version="1.0" encoding="UTF-8" standalone="no"?>
<!-- Created with Inkscape (http://www.inkscape.org/) -->

<svg
   width="1931.182"
   height="1120.3452"
   viewBox="0 0 510.95857 296.42467"
   version="1.1"
   id="svg1"
   xml:space="preserve"
   xmlns:xlink="http://www.w3.org/1999/xlink"
   xmlns="http://www.w3.org/2000/svg"
   xmlns:svg="http://www.w3.org/2000/svg"><defs
     id="defs1"><linearGradient
       id="linearGradient16"><stop
         style="stop-color:#291e5f;stop-opacity:0.18232045;"
         offset="0"
         id="stop17" /><stop
         style="stop-color:#291e5f;stop-opacity:1;"
         offset="0.5"
         id="stop19" /><stop
         style="stop-color:#291e5f;stop-opacity:0;"
         offset="1"
         id="stop18" /></linearGradient><linearGradient
       id="linearGradient14"><stop
         style="stop-color:#291e5f;stop-opacity:0.11325967;"
         offset="0"
         id="stop14" /><stop
         style="stop-color:#291e5f;stop-opacity:0.80662984;"
         offset="0.5"
         id="stop16" /><stop
         style="stop-color:#291e5f;stop-opacity:0;"
         offset="1"
         id="stop15" /></linearGradient><linearGradient
       id="linearGradient10"><stop
         style="stop-color:#291e5f;stop-opacity:0.18232045;"
         offset="0"
         id="stop11" /><stop
         style="stop-color:#1e225f;stop-opacity:0.68232042;"
         offset="0.5"
         id="stop13" /><stop
         style="stop-color:#291e5f;stop-opacity:0;"
         offset="1"
         id="stop12" /></linearGradient><linearGradient
       id="linearGradient7"><stop
         style="stop-color:#291e5f;stop-opacity:0.0801105;"
         offset="0"
         id="stop8" /><stop
         style="stop-color:#1e285f;stop-opacity:0.72928178;"
         offset="0.5"
         id="stop10" /><stop
         style="stop-color:#291e5f;stop-opacity:0;"
         offset="1"
         id="stop9" /></linearGradient><linearGradient
       id="linearGradient5"><stop
         style="stop-color:#291e5f;stop-opacity:0.14917128;"
         offset="0"
         id="stop5" /><stop
         style="stop-color:#371e5f;stop-opacity:0.34254143;"
         offset="0.49076092"
         id="stop7" /><stop
         style="stop-color:#291e5f;stop-opacity:0;"
         offset="1"
         id="stop6" /></linearGradient><linearGradient
       xlink:href="#linearGradient5"
       id="linearGradient6"
       x1="95.721695"
       y1="184.95357"
       x2="228.22043"
       y2="179.92964"
       gradientUnits="userSpaceOnUse" /><linearGradient
       xlink:href="#linearGradient7"
       id="linearGradient9"
       x1="68.775932"
       y1="51.697357"
       x2="300.65933"
       y2="93.373314"
       gradientUnits="userSpaceOnUse" /><linearGradient
       xlink:href="#linearGradient10"
       id="linearGradient12"
       x1="147.28044"
       y1="85.288727"
       x2="243.24191"
       y2="102.41788"
       gradientUnits="userSpaceOnUse" /><linearGradient
       xlink:href="#linearGradient14"
       id="linearGradient15"
       x1="346.19739"
       y1="100.10416"
       x2="492.68237"
       y2="52.983742"
       gradientUnits="userSpaceOnUse" /><linearGradient
       xlink:href="#linearGradient16"
       id="linearGradient18"
       x1="10.194852"
       y1="264.48215"
       x2="163.97932"
       y2="228.14244"
       gradientUnits="userSpaceOnUse" /></defs><g
     id="layer2"
     style="display:inline"
     transform="translate(1.0856875,-8.4241755)"><path
       style="opacity:0.786127;fill:url(#linearGradient12);stroke:none;stroke-width:0.365001;stroke-linecap:round;stroke-linejoin:round"
       d="m 143.20322,75.667192 c -2.28936,2.249884 -4.65766,6.275996 -5.72339,9.670587 -1.06574,3.39459 -0.82891,6.157552 1.02629,8.289038 1.85521,2.131485 5.32865,3.631379 9.31533,3.591891 3.98668,-0.03949 8.48636,-1.618324 15.98608,-2.644592 7.49973,-1.026268 17.99898,-1.499918 26.99859,-0.394684 8.99962,1.105234 16.49909,3.789254 22.1041,7.499638 5.60502,3.71038 9.31528,8.44689 11.13098,11.92042 1.81569,3.47353 1.73675,5.6839 2.36831,9.03903 0.63156,3.35514 1.97357,7.85482 5.84186,10.5389 3.86829,2.68408 10.26257,3.55244 16.89388,2.36826 6.63131,-1.18418 13.49924,-4.42079 15.63069,-8.05223 2.13144,-3.63143 -0.47364,-7.65746 -3.63141,-10.97311 -3.15777,-3.31564 -6.86803,-5.92072 -8.88109,-8.96007 -2.01306,-3.03936 -2.32883,-6.5128 -2.05252,-8.960057 0.27632,-2.447257 1.14467,-3.868204 2.9604,-4.973419 1.81572,-1.105216 4.57869,-1.894635 4.22341,-6.355013 -0.35528,-4.460377 -3.82872,-12.591381 -10.2627,-17.40694 -6.43398,-4.81556 -15.82804,-6.315451 -26.84076,-6.157547 -11.01273,0.157905 -23.64341,1.973564 -31.81408,3.197193 -8.17068,1.223629 -11.88094,1.855163 -16.45971,2.526188 -4.57877,0.671026 -10.02575,1.381501 -13.85452,1.894636 -3.82878,0.513135 -6.03914,0.8289 -8.24958,1.223621 -2.21043,0.394722 -4.42081,0.868375 -6.71016,3.11826 z"
       id="path1"
       transform="matrix(1.2155769,-0.45883581,0.31212472,0.78755214,125.58576,174.76736)" /><path
       style="opacity:0.786127;fill:url(#linearGradient9);stroke:none;stroke-width:0.365001;stroke-linecap:round;stroke-linejoin:round"
       d="m 44.545455,110.41467 c 6.363637,-5.58214 17.081339,-11.945772 31.036853,-14.290253 13.955514,-2.34448 31.148152,-0.669872 42.256652,1.451366 11.10851,2.121238 16.13233,4.688967 29.47385,5.526277 13.34153,0.83731 34.99979,-0.0558 55.03984,-1.33972 20.04006,-1.2839 38.46074,-2.958512 56.54704,-6.084553 18.0863,-3.126041 35.83714,-7.703301 45.27097,-12.2807 9.43384,-4.577399 10.55024,-9.15466 10.15947,-12.671439 -0.39077,-3.516779 -2.28866,-5.972865 -10.21544,-7.647512 -7.92678,-1.674647 -21.88183,-2.56777 -33.93935,-1.228023 -12.05752,1.339746 -22.21681,4.912245 -30.8692,7.870802 -8.65238,2.958557 -15.79737,5.303006 -24.56143,6.698546 -8.76406,1.395539 -19.14663,1.842101 -27.96647,1.842097 -8.81985,-5e-6 -16.07649,-0.446567 -23.89157,-1.674657 -7.81507,-1.22809 -16.18811,-3.23762 -22.66343,-5.582146 -6.47533,-2.344525 -11.05259,-5.023896 -18.142,-9.09891 C 114.99183,57.83083 105.39075,52.360447 99.585306,47.169009 93.779863,41.977571 91.770334,37.065391 90.877195,33.213687 89.984055,29.361984 90.207336,26.570971 87.862789,22.551781 85.518243,18.53259 80.60606,13.285486 73.739943,12.336556 66.873826,11.387627 58.054226,14.736842 53.47687,19.760832 c -4.577356,5.023991 -4.912277,11.72242 -6.586948,18.867632 -1.674671,7.145211 -4.688964,14.736767 -8.596508,21.323745 -3.907544,6.586977 -8.708087,12.169003 -12.113211,16.858036 -3.405124,4.689033 -5.414652,8.484809 -7.480065,12.392346 -2.065412,3.907537 -4.186583,7.926594 -6.363638,15.518409 -2.177055,7.59182 -4.4098648,18.75587 -4.0190865,26.2918 0.3907783,7.53592 3.4050725,11.44334 6.2519925,12.16899 2.846919,0.72565 5.526289,-1.73044 8.763964,-5.19141 3.237675,-3.46096 7.03346,-7.92659 9.93619,-12.55981 2.90273,-4.63322 4.912258,-9.43376 11.275895,-15.0159 z"
       id="path2"
       transform="matrix(1.0232093,0,0,1.0180602,-9.5502725,-3.9714302)" /><path
       style="opacity:0.786127;fill:url(#linearGradient6);stroke:none;stroke-width:0.365001;stroke-linecap:round;stroke-linejoin:round"
       d="m 90.095692,176.50717 c 6.921849,-4.35406 19.537478,-9.37799 33.660438,-12.72728 14.12297,-3.3493 29.75264,-5.02391 41.08445,-5.41465 11.33181,-0.39074 18.36516,0.50238 26.62682,1.39553 8.26166,0.89315 17.7511,1.78628 27.01754,3.18183 9.26644,1.39556 18.30931,3.29344 19.48149,7.92669 1.17219,4.63325 -5.52624,12.00152 -12.22481,19.36994 -1.89793,3.68421 -3.79585,7.36842 -9.76884,6.64269 -5.97298,-0.72573 -16.02063,-5.86119 -26.51515,-9.21049 -10.49453,-3.3493 -21.4353,-4.91226 -33.10209,-4.52149 -11.66679,0.39077 -24.05889,2.73522 -33.38113,4.9681 -9.32223,2.23288 -15.57409,4.35404 -21.93779,6.36363 -6.363703,2.00959 -12.838853,3.90748 -16.91383,6.41948 -4.074977,2.51199 -5.749584,5.63792 -6.642727,5.35878 -0.893144,-0.27915 -1.004784,-3.96328 -0.334913,-7.53588 0.669872,-3.57261 2.121195,-7.03346 3.46092,-10.60607 1.339725,-3.5726 2.567772,-7.25674 9.489622,-11.61081 z"
       id="path3"
       transform="matrix(1.0659376,0,0.0637448,0.72192238,-17.624927,41.954431)" /><path
       style="opacity:1;fill:url(#linearGradient15);stroke:none;stroke-width:0.365001;stroke-linecap:round;stroke-linejoin:round"
       d="m 297.89269,109.73124 c 8.01276,-2.44724 25.2224,-6.23652 40.22176,-10.065313 14.99936,-3.828791 27.78792,-7.696936 38.01116,-11.328365 10.22325,-3.631429 17.88059,-7.025919 23.05141,-10.420514 5.17082,-3.394595 7.85485,-6.7891 11.28892,-10.302112 3.43407,-3.513012 7.61799,-7.144331 11.05205,-9.867896 3.43406,-2.723566 6.11807,-4.539222 9.98635,-7.302277 3.86827,-2.763056 8.92054,-6.473318 12.63091,-8.841633 3.71037,-2.368314 6.07861,-3.394551 9.74953,-3.986629 3.67092,-0.592078 8.64424,-0.749961 14.76243,-1.065739 6.11818,-0.315778 13.38083,-0.78943 19.57793,-0.789425 6.1971,5e-6 11.32832,0.473657 15.39393,0.907851 4.06562,0.434194 7.06539,0.8289 7.65744,8.328663 0.59206,7.499763 -1.2236,22.103986 -2.48669,31.458814 -1.2631,9.354828 -1.97357,13.459799 -5.56556,14.249208 -3.59198,0.789409 -10.06522,-1.736732 -14.88079,-4.933977 -4.81558,-3.197244 -7.97324,-7.06539 -12.15729,-9.354751 -4.18404,-2.289362 -9.39422,-2.99984 -15.23609,-3.157722 -5.84187,-0.157882 -12.31508,0.236826 -18.3543,0.947325 -6.03922,0.710499 -11.6441,1.736747 -16.38074,3.118275 -4.73664,1.381528 -8.60479,3.118246 -11.99938,4.815543 -3.39459,1.697297 -6.31543,3.355072 -8.96006,4.85501 -2.64463,1.499939 -5.01287,2.841941 -8.99957,4.420827 -3.9867,1.578887 -9.59155,3.394543 -15.98604,5.802348 -6.39449,2.407805 -13.5782,5.407599 -20.72263,7.144349 -7.14444,1.73676 -14.24919,2.21041 -20.48577,2.88144 -6.23659,0.67102 -11.60462,1.53938 -16.93335,2.60513 -5.32874,1.06575 -10.61784,2.32882 -14.28872,2.92089 -3.67088,0.59208 -5.72336,0.51313 -8.05222,0.67103 -2.32887,0.15789 -4.93393,0.55259 -6.82859,0.19734 -1.89465,-0.35526 -3.07879,-1.46045 4.93397,-3.90769 z"
       id="path13"
       transform="matrix(1.1660755,0,0,1.4755232,-86.448736,-29.939869)" /><path
       style="opacity:1;fill:url(#linearGradient18);fill-opacity:0.592157;stroke:none;stroke-width:0.365001;stroke-linecap:round;stroke-linejoin:round"
       d="m 21.463316,243.437 c 8.736042,-4.24242 22.858852,-11.88995 34.804724,-16.88599 11.945872,-4.99603 21.714416,-7.34048 32.906728,-8.70811 11.192312,-1.36763 23.807692,-1.75837 34.665042,-0.16743 10.85734,1.59095 19.95604,5.16344 29.33413,6.78226 9.37809,1.61882 19.03499,1.2839 22.21678,1.92586 3.18178,0.64196 -0.11162,2.26075 -9.71305,3.48882 -9.60143,1.22808 -25.51021,2.06539 -38.20967,2.48405 -12.69945,0.41866 -22.18889,0.41866 -29.361986,0.66986 -7.173097,0.2512 -12.029461,0.75358 -18.002418,4.10292 -5.972958,3.34935 -13.062132,9.5454 -18.532666,14.96012 -5.470534,5.41472 -9.322133,10.0478 -12.978467,13.53665 -3.656335,3.48886 -7.117185,5.83331 -10.047828,8.40112 -2.930643,2.56781 -5.330921,5.35884 -11.303903,6.00077 -5.972983,0.64193 -15.518245,-0.86523 -19.7606577,-4.66114 -4.2424132,-3.79592 -3.1818275,-9.88033 -2.5398801,-14.59726 0.6419474,-4.71694 0.8652281,-8.06615 2.6515447,-10.15946 1.7863167,-2.09332 5.1355341,-2.93062 13.8715771,-7.17304 z"
       id="path16"
       transform="matrix(1.1182554,0,0,1.3131327,26.415588,-63.053188)" /></g></svg>
