<svg width="215" height="24" viewBox="0 0 215 24" fill="none" xmlns="http://www.w3.org/2000/svg">
<mask id="mask0_145_11" style="mask-type:alpha" maskUnits="userSpaceOnUse" x="0" y="0" width="215" height="24">
<rect width="215" height="24" fill="#FE5672"/>
</mask>
<g mask="url(#mask0_145_11)">
<rect width="215" height="24" fill="#FEC956"/>
<path d="M84.735 7.425L82.14 18H78.525L77.07 11.52L75.585 18H71.97L69.405 7.425H72.585L73.815 14.655L75.48 7.425H78.705L80.325 14.595L81.555 7.425H84.735ZM89.8976 18.105C89.0576 18.105 88.3026 17.93 87.6326 17.58C86.9726 17.23 86.4526 16.73 86.0726 16.08C85.6926 15.43 85.5026 14.665 85.5026 13.785C85.5026 12.915 85.6926 12.155 86.0726 11.505C86.4626 10.855 86.9876 10.355 87.6476 10.005C88.3176 9.655 89.0726 9.48 89.9126 9.48C90.7526 9.48 91.5026 9.655 92.1626 10.005C92.8326 10.355 93.3576 10.855 93.7376 11.505C94.1276 12.155 94.3226 12.915 94.3226 13.785C94.3226 14.655 94.1276 15.42 93.7376 16.08C93.3576 16.73 92.8326 17.23 92.1626 17.58C91.4926 17.93 90.7376 18.105 89.8976 18.105ZM89.8976 15.555C90.3076 15.555 90.6476 15.405 90.9176 15.105C91.1976 14.795 91.3376 14.355 91.3376 13.785C91.3376 13.215 91.1976 12.78 90.9176 12.48C90.6476 12.18 90.3126 12.03 89.9126 12.03C89.5126 12.03 89.1776 12.18 88.9076 12.48C88.6376 12.78 88.5026 13.215 88.5026 13.785C88.5026 14.365 88.6326 14.805 88.8926 15.105C89.1526 15.405 89.4876 15.555 89.8976 15.555ZM98.4587 11.07C98.7887 10.59 99.1887 10.21 99.6587 9.93C100.129 9.65 100.634 9.51 101.174 9.51V12.645H100.349C99.7087 12.645 99.2337 12.77 98.9237 13.02C98.6137 13.27 98.4587 13.705 98.4587 14.325V18H95.5187V9.585H98.4587V11.07ZM107.493 18L105.168 14.55V18H102.228V6.9H105.168V12.885L107.493 9.585H111.018L107.703 13.815L111.078 18H107.493ZM113.425 8.805C112.905 8.805 112.485 8.665 112.165 8.385C111.855 8.095 111.7 7.735 111.7 7.305C111.7 6.865 111.855 6.5 112.165 6.21C112.485 5.92 112.905 5.775 113.425 5.775C113.935 5.775 114.345 5.92 114.655 6.21C114.975 6.5 115.135 6.865 115.135 7.305C115.135 7.735 114.975 8.095 114.655 8.385C114.345 8.665 113.935 8.805 113.425 8.805ZM114.88 9.585V18H111.94V9.585H114.88ZM122.059 9.51C123.029 9.51 123.799 9.835 124.369 10.485C124.939 11.125 125.224 11.995 125.224 13.095V18H122.284V13.485C122.284 13.005 122.159 12.63 121.909 12.36C121.659 12.08 121.324 11.94 120.904 11.94C120.464 11.94 120.119 12.08 119.869 12.36C119.619 12.63 119.494 13.005 119.494 13.485V18H116.554V9.585H119.494V10.785C119.754 10.405 120.104 10.1 120.544 9.87C120.984 9.63 121.489 9.51 122.059 9.51ZM129.942 9.48C130.512 9.48 131.007 9.595 131.427 9.825C131.857 10.055 132.187 10.365 132.417 10.755V9.585H135.357V17.91C135.357 18.7 135.207 19.41 134.907 20.04C134.607 20.68 134.137 21.19 133.497 21.57C132.867 21.95 132.067 22.14 131.097 22.14C129.797 22.14 128.757 21.835 127.977 21.225C127.197 20.615 126.752 19.785 126.642 18.735H129.537C129.597 19.005 129.747 19.215 129.987 19.365C130.227 19.515 130.537 19.59 130.917 19.59C131.917 19.59 132.417 19.03 132.417 17.91V16.83C132.187 17.22 131.857 17.53 131.427 17.76C131.007 17.99 130.512 18.105 129.942 18.105C129.272 18.105 128.662 17.93 128.112 17.58C127.572 17.23 127.142 16.73 126.822 16.08C126.512 15.42 126.357 14.655 126.357 13.785C126.357 12.915 126.512 12.155 126.822 11.505C127.142 10.855 127.572 10.355 128.112 10.005C128.662 9.655 129.272 9.48 129.942 9.48ZM132.417 13.785C132.417 13.245 132.267 12.82 131.967 12.51C131.677 12.2 131.317 12.045 130.887 12.045C130.447 12.045 130.082 12.2 129.792 12.51C129.502 12.81 129.357 13.235 129.357 13.785C129.357 14.325 129.502 14.755 129.792 15.075C130.082 15.385 130.447 15.54 130.887 15.54C131.317 15.54 131.677 15.385 131.967 15.075C132.267 14.765 132.417 14.335 132.417 13.785ZM138.457 18.12C137.937 18.12 137.517 17.98 137.197 17.7C136.887 17.41 136.732 17.045 136.732 16.605C136.732 16.165 136.887 15.8 137.197 15.51C137.517 15.22 137.937 15.075 138.457 15.075C138.967 15.075 139.377 15.22 139.687 15.51C140.007 15.8 140.167 16.165 140.167 16.605C140.167 17.035 140.007 17.395 139.687 17.685C139.377 17.975 138.967 18.12 138.457 18.12ZM142.969 18.12C142.449 18.12 142.029 17.98 141.709 17.7C141.399 17.41 141.244 17.045 141.244 16.605C141.244 16.165 141.399 15.8 141.709 15.51C142.029 15.22 142.449 15.075 142.969 15.075C143.479 15.075 143.889 15.22 144.199 15.51C144.519 15.8 144.679 16.165 144.679 16.605C144.679 17.035 144.519 17.395 144.199 17.685C143.889 17.975 143.479 18.12 142.969 18.12ZM147.481 18.12C146.961 18.12 146.541 17.98 146.221 17.7C145.911 17.41 145.756 17.045 145.756 16.605C145.756 16.165 145.911 15.8 146.221 15.51C146.541 15.22 146.961 15.075 147.481 15.075C147.991 15.075 148.401 15.22 148.711 15.51C149.031 15.8 149.191 16.165 149.191 16.605C149.191 17.035 149.031 17.395 148.711 17.685C148.401 17.975 147.991 18.12 147.481 18.12Z" fill="#343434"/>
<rect x="37" y="40.6772" width="57" height="5.50755" transform="rotate(-70.3401 37 40.6772)" fill="#343434"/>
<rect x="24" y="42.6772" width="57" height="5.50755" transform="rotate(-70.3401 24 42.6772)" fill="#343434"/>
<rect x="11" y="44.6772" width="57" height="5.50755" transform="rotate(-70.3401 11 44.6772)" fill="#343434"/>
<rect x="-2" y="46.6772" width="57" height="5.50755" transform="rotate(-70.3401 -2 46.6772)" fill="#343434"/>
<rect x="152" y="44.6772" width="57" height="5.50755" transform="rotate(-70.3401 152 44.6772)" fill="#343434"/>
<rect x="163" y="45.6772" width="57" height="5.50755" transform="rotate(-70.3401 163 45.6772)" fill="#343434"/>
<rect x="174" y="46.6772" width="57" height="5.50755" transform="rotate(-70.3401 174 46.6772)" fill="#343434"/>
<rect x="185" y="47.6772" width="57" height="5.50755" transform="rotate(-70.3401 185 47.6772)" fill="#343434"/>
</g>
</svg>
